<?xml version="1.0" standalone="no"?>
<!DOCTYPE svg PUBLIC "-//W3C//DTD SVG 20010904//EN"
 "http://www.w3.org/TR/2001/REC-SVG-20010904/DTD/svg10.dtd">
<svg version="1.0" xmlns="http://www.w3.org/2000/svg"
 width="1024.000000pt" height="1024.000000pt" viewBox="0 0 1024.000000 1024.000000"
 preserveAspectRatio="xMidYMid meet">

<g transform="translate(0.000000,1024.000000) scale(0.100000,-0.100000)"
fill="#000000" stroke="none">
<path d="M3885 10086 c-673 -171 -1272 -454 -1820 -861 -349 -258 -735 -637
-984 -963 l-62 -82 291 0 290 0 0 40 0 39 97 3 98 3 8 47 c9 46 10 47 50 50
42 3 42 3 45 46 l3 42 49 0 49 0 3 38 c3 36 4 37 45 40 40 3 42 5 57 52 9 27
16 58 16 69 0 18 6 21 45 21 41 0 45 2 45 24 0 33 25 56 60 56 25 0 30 5 36
34 6 33 8 35 53 38 45 3 46 4 49 40 3 36 4 37 50 40 l47 3 3 43 c2 23 7 40 12
37 6 -3 25 -3 44 1 30 5 35 10 38 37 3 28 7 32 41 38 46 7 54 15 59 54 3 28 6
30 46 33 34 3 42 7 42 23 0 40 19 59 58 60 30 0 33 2 17 9 -17 7 -17 9 -3 9
10 1 17 4 17 9 -4 21 2 31 15 26 14 -5 20 12 29 85 1 8 11 15 22 16 45 4 84
17 89 31 3 8 15 14 27 14 15 0 19 5 15 15 -3 8 -1 15 4 15 6 0 9 6 7 13 -1 8
15 13 50 15 56 3 58 5 65 72 2 19 11 26 33 31 17 4 24 7 16 8 -11 1 -10 5 4
21 9 10 22 18 28 17 7 -1 13 8 15 21 3 19 9 22 52 22 l49 0 3 43 3 42 62 5
c68 6 72 7 78 40 5 28 16 39 22 23 4 -10 7 -10 18 0 7 7 11 15 9 18 -3 6 92
24 109 20 14 -3 35 25 39 50 3 21 9 24 48 27 52 4 59 9 62 45 1 15 6 27 11 27
4 0 6 4 3 9 -6 8 71 21 132 21 30 0 32 2 32 35 0 19 -3 35 -7 34 -5 0 -66 -15
-138 -33z"/>
<path d="M3275 9600 c-3 -5 -1 -10 4 -10 6 0 11 5 11 10 0 6 -2 10 -4 10 -3 0
-8 -4 -11 -10z"/>
<path d="M7748 9462 c-15 -3 -18 -15 -18 -72 0 -65 1 -68 26 -74 15 -4 28 -5
30 -3 2 2 7 31 10 65 5 48 4 62 -6 62 -10 0 -8 4 3 13 16 11 15 12 -5 13 -13
0 -31 -1 -40 -4z m12 -22 c0 -5 -2 -10 -4 -10 -3 0 -8 5 -11 10 -3 6 -1 10 4
10 6 0 11 -4 11 -10z"/>
<path d="M7646 9278 c-7 -35 2 -62 18 -50 6 5 19 8 29 7 17 -3 27 20 25 58 -1
13 -9 17 -34 15 -27 -2 -33 -7 -38 -30z"/>
<path d="M7556 9188 c-3 -13 -7 -32 -8 -43 -4 -26 -61 -37 -138 -27 -67 10
-82 5 -48 -15 l23 -14 -23 6 c-19 6 -23 3 -20 -12 5 -29 18 -33 115 -33 l91 0
-4 -35 c-3 -26 0 -35 10 -35 8 0 17 6 19 13 3 7 6 5 6 -5 1 -15 11 -18 55 -18
77 0 86 -5 86 -52 l0 -41 99 7 c107 8 111 6 105 -46 -2 -24 1 -28 21 -28 13 0
30 -3 39 -6 13 -5 16 2 16 40 l0 46 219 0 c129 0 222 4 226 10 3 5 -23 11 -62
13 l-68 3 81 2 c73 2 82 4 87 23 5 19 1 20 -51 19 -31 -1 -184 -1 -339 -1
l-282 1 -3 38 -3 37 -100 5 c-81 4 -100 8 -99 20 0 8 4 41 7 73 6 47 5 57 -8
57 -8 0 -15 5 -15 10 0 20 -30 9 -34 -12z m-53 -95 c-7 -2 -19 -2 -25 0 -7 3
-2 5 12 5 14 0 19 -2 13 -5z m-10 -20 c-18 -2 -48 -2 -65 0 -18 2 -4 4 32 4
36 0 50 -2 33 -4z m940 -140 c-7 -2 -21 -2 -30 0 -10 3 -4 5 12 5 17 0 24 -2
18 -5z"/>
<path d="M8543 8882 c-25 -2 -34 -9 -39 -27 -10 -38 3 -45 82 -45 44 0 73 4
69 9 -3 5 -22 22 -43 38 -27 20 -46 27 -69 25z"/>
<path d="M7810 8762 c0 -27 7 -42 27 -59 18 -16 22 -23 10 -23 -8 0 -17 5 -19
12 -3 7 -7 6 -11 -5 -5 -14 -1 -17 23 -17 26 0 30 4 31 28 l1 27 8 -30 c4 -16
9 -23 10 -15 4 24 -1 44 -12 51 -5 4 -3 9 5 12 19 7 16 39 -4 43 -8 1 -26 4
-41 7 -26 5 -28 4 -28 -31z"/>
<path d="M7600 8602 l0 -43 -66 4 c-42 2 -69 8 -74 17 -6 9 -8 -5 -7 -40 1
-52 0 -55 -23 -56 -14 -1 -31 -2 -37 -3 -8 -1 -13 -16 -13 -39 0 -36 -2 -38
-45 -50 -42 -11 -45 -14 -45 -47 0 -32 -3 -35 -29 -35 -34 0 -43 -22 -34 -87
l6 -43 -36 0 c-45 0 -51 -16 -43 -121 3 -41 5 -80 5 -86 1 -8 15 -13 36 -13
35 0 35 0 36 48 1 41 3 61 8 119 1 6 18 13 39 15 37 3 37 3 40 51 l3 47 45 0
44 0 0 39 c0 38 13 51 57 55 18 2 25 12 32 48 6 29 11 33 39 34 42 1 48 9 51
62 1 8 17 12 46 12 45 0 45 0 45 36 0 35 18 64 39 64 6 0 11 -5 11 -12 0 -6 9
-3 20 7 11 10 23 15 27 11 4 -4 1 -11 -7 -16 -13 -8 -13 -10 1 -10 23 0 32 38
10 43 -13 4 -13 5 2 6 10 0 17 6 15 12 -2 7 -41 11 -101 12 l-97 2 0 -43z
m-33 -128 c-3 -3 -12 -4 -19 -1 -8 3 -5 6 6 6 11 1 17 -2 13 -5z m0 -40 c-3
-3 -12 -4 -19 -1 -8 3 -5 6 6 6 11 1 17 -2 13 -5z"/>
<path d="M6600 8429 c0 -5 5 -7 10 -4 6 3 10 8 10 11 0 2 -4 4 -10 4 -5 0 -10
-5 -10 -11z"/>
<path d="M6636 8398 c6 -21 6 -21 -12 -4 -17 18 -18 17 -27 -5 -5 -13 -6 -39
-3 -56 2 -18 1 -34 -5 -34 -5 -1 -13 -3 -19 -4 -5 -1 -17 -3 -25 -4 -10 -1
-15 -12 -15 -36 0 -33 -2 -35 -35 -35 -34 0 -35 -1 -37 -42 0 -24 -2 -47 -3
-53 -2 -5 -3 -34 -4 -63 l-1 -54 -40 5 -39 4 -6 -46 c-9 -67 -11 -69 -47 -73
-19 -2 -32 -8 -31 -15 2 -7 -2 -24 -7 -38 -8 -20 -16 -25 -45 -25 -29 0 -35
-4 -37 -22 0 -13 -2 -27 -3 -33 -2 -5 -3 -20 -4 -32 -1 -27 -21 -31 -22 -5 0
9 -5 2 -10 -15 -10 -35 -35 -47 -26 -13 3 11 2 20 -3 20 -12 0 -20 -55 -20
-131 l0 -69 -45 0 -45 0 0 -115 0 -115 -52 0 c-32 0 -48 -4 -40 -8 9 -6 10
-16 4 -33 -5 -13 -10 -62 -11 -108 -1 -47 -4 -88 -7 -93 -3 -4 -21 -8 -40 -8
-33 0 -34 -1 -34 -38 0 -21 5 -43 11 -49 19 -19 -23 -24 -186 -21 l-150 3 0
30 c-1 27 -4 30 -40 35 -38 5 -40 7 -43 43 -3 33 -6 37 -32 37 -26 0 -29 4
-32 38 -3 35 -5 37 -40 40 l-38 3 -1 120 c-1 65 -2 125 -3 132 0 6 -16 13 -33
15 l-33 3 0 -210 c0 -135 4 -211 10 -211 6 0 8 -25 4 -69 l-7 -69 44 -6 c24
-3 98 -8 164 -11 181 -8 243 -16 248 -30 4 -8 -3 -10 -18 -7 -19 3 -24 0 -22
-17 1 -17 8 -21 42 -22 22 -1 47 -3 55 -4 168 -18 159 -15 166 -51 6 -34 7
-34 61 -34 l55 0 -4 -30 -5 -31 46 3 c39 3 46 6 49 26 3 19 10 22 43 22 l40 0
-3 -62 -3 -63 -40 -5 -40 -5 -3 -72 c-3 -65 -5 -73 -22 -73 -15 0 -20 -7 -20
-26 0 -14 -4 -23 -10 -19 -5 3 -11 36 -12 73 l-2 67 -5 -70 c-6 -68 -7 -70
-36 -76 -27 -6 -28 -7 -5 -8 16 -1 21 -4 13 -9 -7 -4 -11 -26 -10 -50 1 -33 5
-42 19 -42 11 0 18 -7 18 -20 0 -12 -7 -20 -16 -20 -14 0 -14 3 -4 15 8 9 8
15 2 15 -6 0 -17 3 -26 6 -14 5 -16 -5 -16 -75 0 -74 -2 -81 -20 -81 -18 0
-19 -6 -16 -101 4 -124 1 -139 -30 -139 -22 0 -24 -4 -24 -55 0 -58 -4 -61
-62 -56 -12 2 -18 -7 -20 -31 -2 -21 -8 -33 -18 -33 -14 0 -16 -14 -10 -80 2
-29 2 -30 9 -5 7 25 7 25 12 -5 2 -16 2 -43 -2 -60 -4 -16 -7 -23 -8 -15 -1
22 -41 23 -42 2 0 -14 -2 -13 -8 3 -6 14 -9 5 -14 -34 -8 -71 0 -106 25 -108
31 -3 33 -9 33 -94 0 -70 2 -80 20 -85 11 -4 21 -2 23 6 3 7 13 21 23 31 15
15 24 17 44 9 22 -8 26 -7 24 8 -4 48 0 52 47 52 l46 0 -3 38 c-3 32 -1 37 16
34 11 -2 25 -7 30 -12 6 -4 23 -7 40 -6 29 1 30 3 27 44 -3 42 -3 42 22 32 14
-5 26 -7 26 -3 0 4 7 -2 16 -13 11 -14 14 -15 11 -3 -3 9 -1 22 4 30 6 10 9 8
9 -11 0 -32 20 -66 20 -35 0 18 6 20 55 18 52 -1 55 0 55 23 0 21 5 24 37 24
41 0 41 -9 0 -12 -23 -2 -27 -7 -26 -33 1 -29 1 -29 9 -5 8 24 11 20 14 -22 1
-7 5 -16 10 -20 13 -9 -39 -22 -64 -15 -17 4 -20 0 -20 -34 l0 -39 58 2 c56 2
56 2 10 5 -34 3 -48 8 -48 19 0 7 7 14 15 14 8 0 15 -4 15 -8 0 -14 64 0 76
16 7 10 13 11 17 4 4 -5 15 -8 25 -6 30 8 62 -32 62 -79 0 -31 3 -38 10 -27 6
10 10 11 10 3 0 -8 15 -13 40 -13 39 0 40 -1 40 -34 l0 -35 -120 2 c-106 2
-119 4 -122 20 -2 10 -6 18 -10 17 -5 0 -125 0 -267 0 l-260 0 -13 -27 c-11
-24 -20 -28 -61 -31 -46 -3 -54 -11 -48 -46 1 -5 -1 -16 -5 -25 -4 -9 -8 -25
-9 -35 -1 -11 -7 -22 -12 -23 -6 -2 -9 -13 -6 -23 3 -12 0 -20 -6 -20 -7 0 -9
5 -6 10 11 17 -4 11 -27 -12 -14 -14 -23 -38 -26 -70 -2 -26 -8 -48 -13 -48
-5 0 -9 -7 -9 -15 0 -12 14 -15 70 -15 l70 0 1 43 c1 23 4 32 6 19 2 -12 9
-20 14 -17 12 8 12 -2 0 -24 -7 -13 -5 -17 10 -17 15 0 19 8 20 36 1 36 3 34
14 -13 4 -20 10 -27 20 -23 8 3 15 1 15 -4 0 -6 -4 -10 -10 -10 -5 0 -10 -10
-10 -22 0 -19 2 -20 10 -8 6 10 10 11 10 3 0 -7 9 -13 19 -13 11 0 21 -5 23
-12 2 -6 32 -13 69 -16 85 -6 101 -22 21 -22 -55 0 -62 -2 -62 -20 0 -17 7
-20 43 -21 53 0 128 -8 145 -14 6 -2 12 -16 12 -30 0 -14 7 -28 15 -31 8 -4
12 -10 9 -15 -3 -5 2 -9 10 -9 9 0 16 5 16 11 0 7 17 8 53 3 28 -4 62 -7 74
-6 23 2 43 -23 43 -52 0 -12 -10 -13 -55 -9 l-55 6 0 -57 0 -56 49 0 c28 0 53
5 56 10 3 6 -1 10 -9 10 -19 0 -28 14 -21 33 4 10 25 15 72 16 37 1 71 5 76 8
4 3 7 -12 5 -33 l-3 -39 -55 2 c-30 1 -60 -3 -67 -9 -8 -6 -52 -9 -113 -6 -55
2 -101 0 -103 -5 -1 -5 -69 -8 -150 -8 l-147 2 0 -26 c0 -14 0 -28 0 -31 0 -3
82 -6 183 -6 221 1 238 -2 234 -34 -1 -13 -5 -26 -8 -28 -3 -3 -48 -8 -100
-11 -51 -3 -105 -9 -119 -12 -14 -3 -28 -6 -32 -5 -13 3 -9 -53 4 -66 9 -9 5
-12 -20 -12 -23 0 -32 5 -32 16 0 14 -7 15 -37 11 -20 -4 -39 -11 -42 -16 -4
-6 -24 -12 -46 -14 -26 -3 -41 -10 -46 -23 -7 -18 -8 -18 -9 1 -1 20 -1 20
-15 1 -8 -11 -15 -30 -15 -42 0 -20 -6 -22 -105 -29 -58 -4 -105 -8 -105 -10
0 -2 4 -15 10 -29 9 -26 9 -26 -39 -26 -47 0 -48 0 -43 30 3 18 0 30 -7 30 -9
0 -16 -28 -12 -52 0 -5 -11 -8 -25 -8 -21 0 -24 4 -20 23 3 12 3 16 0 10 -10
-23 -33 -14 -36 14 -3 26 -6 28 -50 27 -27 -1 -48 3 -48 8 0 5 -4 6 -10 3 -6
-3 -9 9 -7 31 2 33 -1 37 -25 41 -23 3 -27 1 -21 -14 6 -17 5 -16 -15 1 -12
11 -22 27 -22 37 0 10 -4 20 -9 24 -6 3 -8 -3 -6 -14 3 -15 -1 -18 -18 -13
-28 7 -40 24 -24 34 9 6 9 8 0 8 -9 0 -13 16 -13 44 0 44 0 45 38 48 35 3 37
5 40 39 3 31 6 36 22 32 11 -3 31 -2 45 1 21 5 25 12 25 41 0 35 0 35 44 35
26 0 46 -5 49 -12 3 -7 6 -3 6 9 2 41 12 53 47 53 32 0 34 2 34 35 0 33 2 35
40 41 36 6 40 10 40 35 0 27 -3 29 -40 29 -38 0 -40 1 -40 33 0 48 -12 59 -56
55 -37 -3 -39 -5 -42 -40 -3 -35 -5 -38 -35 -38 -73 0 -137 -13 -137 -27 0 -8
-4 -12 -9 -9 -5 3 -14 -1 -21 -9 -18 -21 -33 -18 -27 5 3 11 1 20 -4 20 -5 0
-10 -8 -10 -17 -1 -10 -2 -22 -4 -28 -1 -5 -3 -34 -3 -62 l-2 -53 -40 0 c-40
0 -40 0 -40 -37 0 -21 -3 -61 -6 -90 -6 -49 -8 -52 -38 -55 -26 -2 -32 -8 -34
-31 -5 -41 -32 -47 -223 -47 l-169 0 0 -35 0 -35 108 -1 c153 -1 229 -6 249
-18 16 -9 14 -10 -9 -11 -19 0 -26 -5 -23 -17 1 -10 9 -17 19 -15 9 2 16 -1
16 -6 0 -12 43 -9 52 3 4 6 8 2 8 -8 0 -10 5 -15 10 -12 6 3 10 2 10 -4 0 -5
-6 -12 -12 -14 -8 -3 -6 -6 5 -6 9 -1 17 4 17 11 0 6 12 -2 28 -19 25 -28 33
-31 116 -37 90 -6 130 -21 104 -37 -10 -7 -10 -9 0 -9 18 0 15 -47 -4 -54 -9
-3 -25 -6 -35 -6 -30 0 -12 -20 19 -21 l27 -1 -30 -9 c-29 -8 -28 -8 8 -6 37
3 37 3 37 -35 0 -21 -3 -38 -7 -39 -46 -6 -69 -5 -75 5 -5 6 -8 1 -8 -13 l0
-24 -153 5 c-84 3 -160 9 -167 13 -8 5 -26 9 -40 9 -17 0 -27 6 -30 20 -4 13
-16 22 -32 24 -18 2 -29 11 -34 25 -10 35 -35 57 -64 57 -27 0 -50 31 -50 65
0 10 -11 15 -32 15 -28 0 -33 3 -33 25 0 14 3 25 8 25 4 0 7 5 7 10 0 6 -22
10 -50 10 l-50 0 0 45 0 45 -40 0 -40 0 0 40 0 40 -55 0 -55 0 -1 -32 c-1 -18
-1 -36 0 -40 2 -14 -12 -8 -30 14 -15 16 -19 18 -19 5 0 -8 6 -18 13 -20 7 -3
5 -6 -5 -6 -10 -1 -18 6 -18 14 0 8 -3 15 -7 15 -5 0 -9 14 -10 30 -2 29 -1
30 43 30 l45 0 -3 53 -3 52 -47 -3 c-33 -3 -46 0 -45 10 0 7 -1 28 -1 46 -2
32 -3 32 -52 32 l-51 0 2 -45 c2 -25 6 -45 11 -45 4 0 8 -6 8 -14 0 -8 4 -16
10 -18 5 -1 12 -25 15 -52 2 -27 10 -53 17 -58 10 -6 10 -8 0 -8 -7 0 -10 -5
-6 -11 3 -6 6 -54 5 -107 0 -56 4 -101 10 -109 9 -10 3 -13 -35 -13 -45 0 -46
-1 -46 -31 l0 -32 95 7 95 6 0 -35 0 -35 83 -1 c107 -1 172 -11 173 -26 1 -7
2 -22 3 -33 0 -13 8 -20 22 -20 13 0 23 -8 26 -21 5 -18 11 -20 39 -16 26 4
34 2 34 -9 0 -30 27 -44 84 -44 l56 0 0 -44 c0 -25 5 -48 10 -51 6 -3 10 0 11
7 0 7 4 4 9 -7 5 -11 9 -15 9 -9 1 6 7 11 14 11 6 0 23 3 37 7 19 6 21 5 10
-3 -13 -9 -13 -11 3 -11 9 0 17 5 17 10 0 6 5 10 10 10 6 0 10 -8 8 -17 -3
-15 5 -18 44 -18 25 0 46 -2 46 -5 0 -3 0 -22 1 -42 1 -36 2 -38 36 -38 39 0
48 -16 13 -23 l-23 -4 23 -2 c13 0 22 -7 21 -13 -4 -32 4 -36 84 -43 78 -6 83
-8 82 -28 -3 -38 6 -47 46 -47 l39 0 0 -44 0 -45 44 -6 45 -7 3 -46 3 -46 47
3 47 2 3 -37 c2 -31 8 -39 28 -44 14 -3 26 -11 26 -18 1 -7 3 -33 4 -59 2 -42
3 -44 9 -17 5 27 9 29 31 23 14 -4 19 -7 12 -8 -7 -1 -10 -6 -7 -11 4 -6 11
-7 17 -4 7 4 8 2 4 -4 -12 -19 4 -35 20 -21 12 10 19 8 35 -9 11 -12 29 -22
40 -22 17 0 20 -5 17 -32 -3 -30 0 -33 27 -36 67 -6 74 -10 77 -50 3 -37 3
-37 51 -40 l47 -3 0 -40 0 -39 51 0 51 0 -2 -32 c-3 -56 -2 -58 39 -58 l38 0
7 -62 c7 -66 15 -78 59 -78 25 0 27 -3 27 -39 0 -40 0 -40 43 -43 l42 -3 5
-75 5 -75 43 -3 42 -3 0 -45 0 -44 43 0 42 0 -3 -50 -4 -50 56 0 56 0 -11 28
c-6 15 -20 37 -31 50 l-21 22 21 0 c23 0 27 15 16 58 -5 15 -14 22 -32 22
l-25 0 23 20 c13 11 26 20 30 20 4 0 10 9 13 19 4 17 -1 20 -36 23 l-40 3 0
53 c1 49 -1 52 -24 52 -32 0 -48 18 -57 63 -6 34 -5 37 15 37 31 0 14 14 -19
16 -61 4 -68 6 -37 14 l30 8 -27 1 c-31 1 -47 19 -27 32 15 10 11 10 -71 13
-25 1 -52 5 -60 8 -8 4 -32 9 -52 13 -21 3 -38 10 -38 16 0 6 4 8 9 4 5 -3 12
-1 15 4 4 5 2 12 -4 16 -6 4 -8 10 -5 15 3 5 -3 18 -15 30 -11 11 -20 33 -20
50 0 29 -2 30 -43 30 -47 0 -85 23 -120 72 -7 10 -28 18 -49 20 -37 2 -38 3
-38 43 0 49 -10 67 -30 55 -32 -20 -50 -12 -50 24 0 29 -4 34 -30 39 -16 4
-36 4 -43 1 -10 -3 -12 4 -9 30 3 22 11 37 22 41 12 4 17 15 16 38 -1 29 -4
32 -33 35 -28 3 -33 0 -33 -18 0 -12 -4 -19 -9 -16 -5 4 -21 2 -35 -4 -26 -9
-26 -9 -26 34 0 49 -9 56 -67 56 -33 0 -34 2 -33 32 4 66 3 68 -40 68 -35 0
-40 3 -40 23 0 18 2 19 10 7 9 -13 11 -13 20 0 5 8 10 21 11 28 1 6 3 17 4 22
1 6 3 18 4 28 1 14 9 18 39 18 35 -1 37 1 40 32 3 24 8 32 23 32 11 0 29 5 40
10 17 10 19 7 19 -20 0 -19 4 -29 11 -25 5 4 9 21 7 38 -3 31 -2 32 37 33 91
2 97 3 91 19 -3 8 -2 15 3 15 4 0 8 7 8 14 0 11 -5 12 -18 5 -23 -12 -26 -12
-26 6 0 8 6 15 13 15 7 0 19 3 28 6 11 4 16 1 16 -10 0 -9 5 -16 10 -16 6 0
10 11 10 24 0 28 15 36 53 29 20 -4 27 -1 27 11 0 10 -6 13 -17 10 -15 -5 -16
-4 -3 5 9 6 18 7 24 1 17 -17 27 -11 16 10 -6 11 -15 18 -21 15 -5 -4 -9 -2
-9 3 0 9 22 22 36 22 3 0 9 -10 14 -22 7 -18 9 -19 9 -5 1 10 9 17 21 17 24 0
25 6 5 26 -24 25 -19 54 10 54 18 0 25 -5 25 -20 0 -11 4 -20 10 -20 5 0 7 -6
4 -14 -4 -11 0 -13 15 -9 16 4 21 17 27 70 3 35 12 66 18 69 13 4 55 12 74 13
7 1 12 15 12 35 0 28 5 36 28 44 15 6 21 11 14 11 -7 1 -10 6 -7 11 4 6 15 8
26 5 15 -5 20 0 25 24 4 20 11 28 20 24 8 -3 34 -2 58 1 39 6 45 11 51 37 4
16 12 29 18 30 7 0 3 4 -8 9 -17 7 -15 9 12 9 26 1 39 9 65 46 22 30 41 44 56
45 13 0 21 4 18 9 -3 5 -3 23 0 40 7 31 28 42 37 19 4 -10 6 -10 6 0 1 7 14
12 31 12 23 0 31 -5 36 -25 9 -36 22 -21 30 33 8 62 20 76 74 88 25 5 46 15
46 22 1 6 2 21 3 31 1 16 10 20 49 23 45 3 47 4 50 36 3 33 4 34 48 30 l44 -3
0 45 c0 25 3 63 7 85 l7 40 7 -30 c6 -28 7 -29 14 -7 4 12 15 22 26 22 21 0
26 16 7 23 -7 3 -3 6 9 6 15 1 25 11 33 36 13 40 40 48 40 12 0 -14 6 -24 15
-24 10 0 15 11 15 33 0 28 6 37 38 53 20 11 32 20 25 21 -16 0 -10 27 9 42 9
7 18 27 20 43 2 21 8 30 21 29 9 -1 17 2 17 7 0 5 11 9 25 9 24 0 25 3 25 55
l0 55 45 0 45 0 0 50 c0 41 3 50 18 48 54 -4 72 2 72 26 0 45 17 73 47 79 16
3 31 0 35 -6 4 -7 8 25 8 69 0 65 3 83 15 88 9 3 15 11 14 18 -4 30 2 38 27
38 14 0 23 4 19 9 -3 5 1 16 9 24 8 8 12 18 9 21 -7 7 -11 19 -15 51 -2 16 4
21 29 23 31 3 32 3 27 53 -2 27 0 49 4 50 59 6 62 12 74 164 3 28 6 30 49 33
44 3 47 5 53 36 6 34 37 56 75 56 22 0 31 19 31 66 0 31 3 34 30 34 17 0 30 5
30 10 0 6 7 10 16 10 12 0 15 7 12 25 -4 21 -1 25 18 25 34 0 54 10 54 29 0
14 2 14 11 1 8 -12 9 -9 5 12 -3 14 -1 28 4 30 6 2 12 14 13 27 1 17 11 28 29
35 16 6 28 14 28 18 0 4 15 8 33 8 63 0 79 10 75 44 -3 30 -2 31 44 34 44 3
48 5 56 35 6 24 14 33 34 35 19 2 27 10 32 33 l6 29 85 0 c55 0 85 4 85 11 0
6 7 9 15 5 8 -3 15 -1 15 4 0 6 -6 10 -14 10 -8 0 -15 8 -16 18 0 9 -2 35 -3
57 -2 37 0 40 28 46 19 4 -4 7 -60 9 -49 1 -139 4 -200 6 -60 3 -125 2 -142
-1 -29 -5 -33 -10 -33 -35 l0 -30 -100 0 c-100 0 -101 0 -111 27 -13 34 -5 53
22 53 18 0 21 5 17 35 -4 36 5 45 46 45 l22 0 0 278 c0 152 3 283 8 290 6 10
11 10 23 1 11 -10 16 -10 22 0 5 7 25 13 45 14 39 1 28 16 -14 18 -23 1 -23 2
5 9 26 7 24 8 -15 6 -25 -1 -51 -5 -58 -10 -6 -4 -12 -3 -12 2 0 6 7 13 16 16
8 3 13 10 9 15 -3 5 7 12 22 14 16 2 3 4 -27 5 -30 0 -50 -1 -45 -4 6 -2 8
-25 6 -51 -3 -43 -5 -45 -17 -28 -14 18 -14 18 -14 -1 0 -12 -7 -21 -15 -21
-8 0 -15 6 -15 12 0 7 -19 13 -50 14 l-50 1 3 -45 3 -45 -41 0 c-22 0 -64 -3
-94 -7 -45 -5 -51 -8 -32 -15 19 -7 21 -11 11 -23 -6 -8 -9 -18 -7 -23 3 -4 1
-14 -4 -22 -8 -13 -10 -13 -18 -1 -5 8 -7 20 -4 28 4 9 -3 16 -16 20 -13 3
-21 13 -21 27 0 11 -4 17 -8 11 -4 -5 -24 -11 -46 -11 -41 -2 -56 -15 -56 -53
0 -17 4 -22 16 -17 13 5 15 2 11 -14 -4 -15 0 -20 16 -20 18 0 19 -2 7 -10
-10 -6 -11 -10 -2 -10 7 0 12 -14 12 -34 0 -38 -12 -46 -66 -46 -32 0 -34 -2
-34 -35 0 -29 -4 -35 -22 -36 -14 -1 -5 -6 20 -12 44 -10 53 -27 27 -54 -8 -8
-13 -19 -10 -24 4 -5 -23 -9 -62 -9 -37 0 -92 -3 -120 -6 -47 -6 -53 -10 -53
-30 0 -18 -6 -24 -32 -27 -32 -4 -32 -4 5 -5 l37 -2 0 -45 c0 -25 -1 -48 -2
-52 -2 -5 -23 -8 -48 -8 -41 0 -45 -2 -45 -25 0 -14 -4 -28 -9 -31 -11 -9 96
-21 117 -14 9 4 26 0 39 -9 12 -9 40 -16 61 -16 32 0 38 -3 33 -16 -3 -9 -6
-23 -6 -31 0 -15 -27 -16 -259 -10 l-259 6 -6 -25 c-5 -20 -13 -24 -41 -24
-42 0 -47 8 -48 78 0 31 -2 42 -4 25 l-4 -33 -66 0 c-51 0 -63 3 -55 13 6 6
10 16 10 22 0 5 5 11 11 13 6 2 11 -3 11 -12 0 -12 9 -16 33 -15 26 0 28 2 12
8 -19 8 -19 8 4 16 43 13 1 24 -72 18 -65 -6 -68 -7 -74 -34 -5 -25 -10 -28
-52 -31 -42 -3 -46 -5 -45 -27 2 -31 -21 -58 -30 -36 -3 8 -12 15 -20 15 -15
0 -29 27 -20 41 3 5 0 9 -5 9 -6 0 -11 -19 -12 -42 0 -24 -3 -38 -5 -32 -3 8
-16 8 -44 1 l-39 -11 4 -50 c3 -31 1 -45 -4 -37 -5 8 -14 10 -21 6 -10 -6 -12
-2 -7 16 5 22 5 22 -7 7 -15 -21 -37 -23 -54 -6 -9 9 -12 -3 -12 -55 l0 -67
-30 0 c-29 0 -30 2 -30 45 l0 45 -40 0 c-25 0 -40 5 -40 13 0 6 -1 64 -2 127
l-1 115 44 0 44 0 3 -67 c3 -68 3 -68 32 -68 l30 0 0 65 0 65 108 0 c139 0
149 3 157 47 7 41 30 71 38 50 3 -7 6 -5 6 6 1 20 17 23 24 5 3 -7 6 -3 6 8 1
17 -5 22 -25 22 -28 0 -47 19 -39 40 3 8 5 24 5 38 0 17 7 25 25 30 19 5 28
15 32 38 7 31 7 31 14 6 6 -20 8 -15 8 20 -1 99 0 108 21 115 15 5 20 15 20
40 0 25 -4 33 -14 29 -19 -7 -26 37 -26 157 l0 99 45 0 45 0 0 50 0 50 45 0
44 0 3 107 3 108 43 0 c41 0 42 0 44 35 1 19 2 42 4 50 1 8 2 39 3 68 l1 52
39 0 c35 0 39 3 45 31 8 43 8 87 -1 92 -16 9 -163 -16 -164 -27 -1 -6 -2 -24
-3 -41 -1 -28 -3 -30 -38 -27 l-37 3 -3 -48 c-2 -29 -8 -48 -15 -49 -7 -1 -20
-2 -28 -3 -11 -1 -15 -13 -15 -45 0 -41 -2 -43 -25 -39 -20 4 -25 0 -31 -21
-7 -28 15 -55 44 -56 6 0 12 -4 12 -10 0 -10 -19 -14 -52 -11 -13 2 -16 -4
-12 -25 3 -15 2 -40 -1 -55 -6 -25 -11 -29 -40 -29 -32 0 -49 -18 -44 -46 4
-24 -3 -34 -26 -34 -16 0 -25 -6 -25 -16 0 -8 -5 -12 -10 -9 -6 4 -8 11 -5 16
4 5 1 9 -4 9 -7 0 -9 -21 -7 -57 7 -87 -4 -128 -34 -129 -14 0 -31 -1 -37 -2
-10 -2 -13 -36 -13 -133 l0 -132 -35 6 -35 6 0 -120 0 -119 -48 0 c-32 0 -49
4 -50 13 -9 74 -11 77 -66 78 -77 2 -96 5 -109 18 -8 8 -8 11 1 11 9 0 10 5 2
19 -16 31 -12 262 5 285 7 10 18 15 24 11 7 -3 8 0 5 9 -3 9 -1 16 5 16 6 0
11 -5 11 -12 0 -6 3 -8 7 -4 4 4 10 62 13 129 5 112 7 122 25 125 11 2 27 6
35 9 8 3 18 5 23 5 4 -1 7 3 7 8 0 6 -12 11 -27 11 -28 2 -28 2 -3 6 14 3 28
10 32 16 4 7 7 58 7 115 0 56 3 118 7 137 6 32 9 35 40 35 19 0 35 3 35 8 1 4
3 35 4 69 3 86 7 93 55 93 l40 0 0 91 0 92 51 -6 50 -6 0 82 c0 45 2 108 5
140 4 40 2 57 -6 57 -7 0 -9 -8 -4 -22z m-25 -71 c-8 -8 -11 -4 -11 14 0 33
14 47 18 19 2 -12 -1 -27 -7 -33z m219 -633 c0 -8 -8 -14 -17 -13 -10 0 -13 3
-6 5 7 3 9 12 6 21 -4 11 -2 14 5 9 7 -4 12 -14 12 -22z m17 -6 c-3 -8 -6 -5
-6 6 -1 11 2 17 5 13 3 -3 4 -12 1 -19z m-32 -97 c3 -5 1 -12 -5 -16 -5 -3
-10 1 -10 9 0 18 6 21 15 7z m-478 -77 c-3 -3 -12 -4 -19 -1 -8 3 -5 6 6 6 11
1 17 -2 13 -5z m606 -41 c-7 -2 -19 -2 -25 0 -7 3 -2 5 12 5 14 0 19 -2 13 -5z
m1317 -143 c0 -5 -4 -10 -10 -10 -5 0 -10 5 -10 10 0 6 5 10 10 10 6 0 10 -4
10 -10z m-1603 -42 c-3 -7 -5 -2 -5 12 0 14 2 19 5 13 2 -7 2 -19 0 -25z
m1263 -98 c0 -5 -2 -10 -4 -10 -3 0 -8 5 -11 10 -3 6 -1 10 4 10 6 0 11 -4 11
-10z m-90 -50 c0 -5 -4 -10 -10 -10 -5 0 -10 5 -10 10 0 6 5 10 10 10 6 0 10
-4 10 -10z m-40 -4 c0 -9 -40 -13 -46 -5 -3 5 6 9 20 9 14 0 26 -2 26 -4z m88
-23 c-10 -2 -28 -2 -40 0 -13 2 -5 4 17 4 22 1 32 -1 23 -4z m-1166 -138 c3
-13 1 -22 -3 -19 -9 5 -13 44 -5 44 2 0 6 -11 8 -25z m-235 -7 c-3 -8 -6 -5
-6 6 -1 11 2 17 5 13 3 -3 4 -12 1 -19z m273 -15 c-11 -17 -11 -17 -6 0 3 10
6 24 7 30 0 9 2 9 5 0 3 -7 0 -20 -6 -30z m-246 11 c3 -8 2 -12 -4 -9 -6 3
-10 10 -10 16 0 14 7 11 14 -7z m243 -66 c-3 -8 -6 -5 -6 6 -1 11 2 17 5 13 3
-3 4 -12 1 -19z m-947 -94 c0 -2 -7 -4 -15 -4 -8 0 -15 4 -15 10 0 5 7 7 15 4
8 -4 15 -8 15 -10z m1170 -409 c0 -23 -4 -25 -45 -25 -41 0 -45 2 -45 25 0 23
4 25 45 25 41 0 45 -2 45 -25z m-102 -22 c3 -20 -1 -23 -32 -23 -32 0 -36 3
-36 26 0 23 3 25 33 22 24 -2 33 -8 35 -25z m-80 -90 c6 -16 11 -22 11 -15 1
15 77 17 87 1 3 -6 21 -9 40 -7 28 3 34 0 39 -20 8 -32 4 -34 -29 -17 -33 18
-56 19 -56 4 0 -6 -17 -9 -42 -7 -29 2 -42 7 -40 16 1 8 -2 11 -8 7 -22 -14
-42 26 -31 63 4 12 21 -3 29 -25z m358 -27 c19 -15 19 -15 -1 -29 -25 -19 -59
-7 -63 22 -3 16 2 21 20 21 13 0 33 -6 44 -14z m1091 -2 c-3 -3 -12 -4 -19 -1
-8 3 -5 6 6 6 11 1 17 -2 13 -5z m-2167 -41 c0 -19 -3 -24 -10 -17 -6 6 -8 18
-4 27 9 24 14 21 14 -10z m995 -43 c0 -22 -4 -25 -35 -25 -26 0 -36 5 -38 19
-5 23 15 37 48 34 19 -2 25 -9 25 -28z m-547 -7 c-3 -24 -8 -28 -33 -28 -25 0
-30 4 -33 28 -3 25 -1 27 33 27 34 0 36 -2 33 -27z m262 -5 c0 -28 -3 -29 -72
-19 -5 0 -8 12 -8 26 0 24 3 26 40 23 37 -2 40 -4 40 -30z m-373 -44 c-3 -3
-12 -4 -19 -1 -8 3 -5 6 6 6 11 1 17 -2 13 -5z m29 -41 c-6 -12 -13 -17 -15
-12 -2 7 -7 6 -12 -2 -7 -11 -9 -11 -9 3 0 9 -6 19 -12 22 -7 3 -1 4 15 2 24
-3 27 -1 21 17 -5 17 -4 18 8 7 11 -11 12 -19 4 -37z m532 20 c-3 -24 -8 -28
-40 -31 -34 -3 -38 -1 -38 21 0 31 7 37 47 37 32 0 34 -2 31 -27z m-324 1 c16
-6 11 -34 -6 -34 -6 0 -8 6 -5 14 3 8 1 17 -6 20 -17 7 -2 7 17 0z m130 -79
c-4 -8 -8 -15 -10 -15 -2 0 -4 7 -4 15 0 8 4 15 10 15 5 0 7 -7 4 -15z m93 9
c-3 -3 -12 -4 -19 -1 -8 3 -5 6 6 6 11 1 17 -2 13 -5z m-267 -30 c0 -29 -12
-36 -45 -28 -18 4 -25 13 -25 30 0 22 4 24 35 22 29 -2 35 -6 35 -24z m100
-53 c0 -12 8 -21 23 -24 19 -4 18 -4 -5 -6 -16 0 -29 4 -29 12 -1 6 -5 -1 -9
-18 -7 -28 -8 -27 -9 13 -1 31 3 42 14 42 8 0 15 -9 15 -19z m-180 -26 c0 -32
-2 -35 -30 -35 -23 0 -31 5 -36 24 -8 34 2 46 37 46 27 0 29 -3 29 -35z m-563
-27 c-3 -7 -5 -2 -5 12 0 14 2 19 5 13 2 -7 2 -19 0 -25z m201 -55 c-2 -32 -7
-47 -15 -45 -7 1 -13 -2 -13 -8 0 -5 4 -10 10 -10 5 0 7 -7 3 -16 -3 -9 0 -20
8 -25 11 -7 11 -9 -3 -9 -12 0 -18 -8 -18 -22 0 -19 2 -20 10 -8 8 13 10 12
10 -2 0 -10 -6 -18 -14 -18 -17 0 -27 57 -12 65 8 3 7 7 0 10 -7 3 -10 15 -7
25 3 12 0 20 -7 20 -10 0 -10 40 -1 88 1 1 12 2 27 2 24 0 25 -2 22 -47z m282
28 c0 -6 -5 -13 -10 -16 -6 -4 -8 -11 -5 -16 4 -5 1 -9 -4 -9 -6 0 -11 8 -11
18 0 13 -2 14 -9 3 -5 -7 -13 -11 -19 -7 -6 3 -13 -4 -15 -16 -3 -17 -5 -15
-6 9 0 17 5 34 12 36 21 9 67 7 67 -2z m200 -19 c0 -26 -3 -28 -41 -31 -31 -1
-39 1 -35 11 3 7 9 21 12 31 4 11 17 17 35 17 25 0 29 -4 29 -28z m-110 -71
c0 -11 3 -26 6 -35 4 -12 0 -16 -15 -16 -23 0 -28 15 -8 24 6 4 2 4 -10 2 -17
-3 -23 1 -23 13 0 23 9 31 32 31 11 0 18 -7 18 -19z m530 1 c0 -8 -5 -10 -12
-6 -7 5 -9 2 -6 -8 5 -12 0 -14 -20 -10 -24 5 -25 6 -7 13 16 6 17 8 3 8 -9 1
-20 -4 -24 -10 -3 -6 -15 -9 -25 -6 -11 3 -17 1 -13 -4 3 -5 -10 -9 -28 -8
-27 0 -30 2 -13 9 18 8 18 9 2 9 -10 1 -16 5 -12 10 3 5 -3 11 -12 14 -10 2
24 4 74 3 69 -1 93 -4 93 -14z m-593 -24 c-3 -7 -5 -2 -5 12 0 14 2 19 5 13 2
-7 2 -19 0 -25z m632 8 c0 -12 -3 -15 -6 -8 -2 6 -9 10 -14 6 -5 -3 -9 1 -9 9
0 7 7 14 15 14 9 0 15 -9 14 -21z m-1046 -43 c-7 -2 -13 -20 -13 -38 0 -19 -5
-37 -11 -41 -9 -5 -9 37 0 84 1 1 9 2 19 1 10 0 12 -3 5 -6z m37 -13 c0 -11
-4 -20 -9 -20 -6 0 -9 9 -8 20 1 11 5 20 9 20 4 0 8 -9 8 -20z m370 -15 c0
-33 -2 -35 -35 -35 -34 0 -35 -1 -35 -40 0 -36 -2 -40 -25 -40 -24 0 -25 2
-25 75 l0 75 60 0 60 0 0 -35z m-390 -17 c0 -19 -16 -5 -17 14 -2 18 0 20 7 8
5 -8 10 -18 10 -22z m565 13 c-5 -15 -1 -18 22 -14 27 5 27 5 8 -10 -10 -8
-25 -13 -32 -10 -14 5 -18 35 -6 46 11 12 15 8 8 -12z m58 2 c-7 -2 -21 -2
-30 0 -10 3 -4 5 12 5 17 0 24 -2 18 -5z m-593 -22 c0 -12 -39 -25 -47 -17 -4
3 1 6 10 6 10 0 17 5 17 10 0 6 5 10 10 10 6 0 10 -4 10 -9z m693 2 c-7 -2
-19 -2 -25 0 -7 3 -2 5 12 5 14 0 19 -2 13 -5z m-630 -10 c-7 -2 -19 -2 -25 0
-7 3 -2 5 12 5 14 0 19 -2 13 -5z m457 -30 c0 -24 -17 -49 -26 -40 -4 4 -13 2
-20 -4 -18 -15 -54 10 -54 38 0 21 5 23 50 23 41 0 50 -3 50 -17z m-173 -69
c-3 -3 -12 -4 -19 -1 -8 3 -5 6 6 6 11 1 17 -2 13 -5z m73 -15 c0 -11 -5 -17
-10 -14 -6 4 -8 11 -5 16 4 5 -1 9 -9 9 -10 0 -13 -6 -10 -17 5 -15 4 -16 -5
-3 -16 23 -13 30 14 30 19 0 25 -5 25 -21z m-143 -11 c-3 -8 -6 -5 -6 6 -1 11
2 17 5 13 3 -3 4 -12 1 -19z m-100 -80 c-3 -8 -6 -5 -6 6 -1 11 2 17 5 13 3
-3 4 -12 1 -19z m123 -128 c0 -5 -12 -10 -27 -10 -22 0 -25 2 -13 10 20 13 40
13 40 0z m-629 -247 c-12 -20 -14 -14 -5 12 4 9 9 14 11 11 3 -2 0 -13 -6 -23z
m514 -10 c-2 -10 -4 -28 -4 -41 l-1 -22 -162 2 -163 3 0 38 -1 37 167 0 c154
0 167 -1 164 -17z m-558 -245 c-2 -13 -4 -5 -4 17 -1 22 1 32 4 23 2 -10 2
-28 0 -40z m413 -198 c0 -5 -5 -10 -11 -10 -5 0 -7 5 -4 10 3 6 8 10 11 10 2
0 4 -4 4 -10z m125 -190 c-3 -5 -13 -10 -21 -10 -8 0 -14 5 -14 10 0 6 9 10
21 10 11 0 17 -4 14 -10z m-442 -317 c-13 -2 -33 -2 -45 0 -13 2 -3 4 22 4 25
0 35 -2 23 -4z m-26 -19 c-3 -3 -12 -4 -19 -1 -8 3 -5 6 6 6 11 1 17 -2 13 -5z
m-47 -8 c0 -3 -4 -8 -10 -11 -5 -3 -10 -1 -10 4 0 6 5 11 10 11 6 0 10 -2 10
-4z m-1490 -58 c0 -9 4 -8 10 2 6 10 10 11 10 3 0 -7 6 -13 14 -13 8 0 16 6
19 13 2 6 6 -9 8 -35 3 -35 1 -48 -9 -48 -9 0 -11 7 -7 19 3 11 1 22 -5 26 -6
4 -10 -4 -10 -18 0 -20 -6 -26 -30 -29 -27 -4 -30 -2 -30 22 0 14 -5 31 -12
38 -9 9 -8 12 8 14 10 0 -1 4 -26 8 l-45 7 53 1 c36 2 52 -2 52 -10z m-43 -44
c-3 -3 -12 -4 -19 -1 -8 3 -5 6 6 6 11 1 17 -2 13 -5z m1010 -120 c-3 -3 -12
-4 -19 -1 -8 3 -5 6 6 6 11 1 17 -2 13 -5z m903 -36 c0 -5 -4 -8 -10 -8 -5 0
-10 10 -10 23 0 18 2 19 10 7 5 -8 10 -18 10 -22z m-1540 -122 c0 -2 -9 -6
-20 -9 -11 -3 -18 -1 -14 4 5 9 34 13 34 5z m1427 -18 c-3 -8 -6 -5 -6 6 -1
11 2 17 5 13 3 -3 4 -12 1 -19z m-187 -78 c0 -11 -4 -20 -9 -20 -5 0 -7 9 -4
20 3 11 7 20 9 20 2 0 4 -9 4 -20z m-747 -230 c-10 -11 -18 -20 -20 -20 -1 0
-1 9 0 20 1 12 8 20 19 20 17 0 17 -1 1 -20z m567 -454 c0 -3 -4 -8 -10 -11
-5 -3 -10 -1 -10 4 0 6 5 11 10 11 6 0 10 -2 10 -4z"/>
<path d="M4760 8360 c-1 -3 -3 -18 -6 -35 -3 -28 -3 -29 7 -6 5 13 8 29 5 35
-2 6 -5 9 -6 6z"/>
<path d="M4824 8263 c2 -15 5 -35 6 -43 1 -11 4 -9 10 5 7 17 9 17 9 3 1 -19
31 -26 31 -8 0 6 -6 10 -12 10 -10 0 -9 3 1 9 7 5 11 13 7 19 -3 6 0 13 6 15
7 3 3 6 -9 6 -12 1 -28 4 -37 7 -12 4 -14 -1 -12 -23z"/>
<path d="M4564 8225 c-7 -17 4 -37 17 -30 12 8 12 45 -1 45 -6 0 -13 -7 -16
-15z"/>
<path d="M4561 8166 c-16 -19 -11 -29 8 -17 7 5 12 14 9 21 -3 9 -8 7 -17 -4z"/>
<path d="M4520 8139 c0 -11 4 -18 10 -14 5 3 7 12 3 20 -7 21 -13 19 -13 -6z"/>
<path d="M4933 8142 c-6 -4 -14 -24 -18 -45 -7 -34 -6 -37 17 -37 22 0 24 4
20 38 -5 51 -5 52 -19 44z"/>
<path d="M4556 8124 c-26 -18 -17 -24 12 -8 13 6 20 14 15 17 -4 3 -17 -1 -27
-9z"/>
<path d="M4510 8073 c0 -28 15 -62 23 -53 3 3 7 21 11 40 3 19 3 29 0 23 -8
-18 -25 -16 -18 2 4 8 1 15 -5 15 -6 0 -11 -12 -11 -27z"/>
<path d="M4990 7930 c0 -43 3 -50 20 -50 11 0 20 6 21 13 0 6 2 29 5 50 3 34
1 37 -21 37 -23 0 -25 -3 -25 -50z"/>
<path d="M2218 7893 c-6 -25 -4 -150 2 -157 3 -2 19 -6 35 -9 27 -3 30 -7 33
-45 l3 -41 -43 -3 c-40 -3 -43 -5 -46 -35 -3 -27 0 -33 17 -33 11 0 23 -5 27
-12 4 -7 3 -8 -4 -4 -7 4 -12 2 -12 -3 0 -6 -9 -11 -20 -11 -11 0 -20 -6 -20
-12 0 -9 -4 -8 -10 2 -7 11 -10 11 -10 2 0 -7 -5 -10 -12 -6 -7 4 -8 3 -4 -4
4 -7 2 -12 -3 -12 -6 0 -11 -5 -11 -11 0 -5 5 -7 10 -4 6 3 10 2 10 -4 0 -5
-6 -11 -12 -14 -7 -2 -1 -2 15 0 26 4 27 3 27 -37 0 -33 4 -42 23 -49 12 -5
22 -12 22 -17 0 -5 4 -8 9 -6 5 2 5 -3 -1 -10 -6 -7 -13 -17 -15 -23 -1 -5
-10 -10 -18 -10 -20 0 -27 -84 -8 -97 10 -8 10 -11 1 -15 -20 -7 -16 -51 5
-56 15 -4 15 -5 0 -6 -21 -1 -33 -53 -19 -80 6 -11 10 -28 9 -38 0 -10 0 -36
1 -58 2 -29 5 -34 9 -20 6 18 17 22 40 15 4 -1 10 -2 15 -1 4 0 7 -24 7 -54 0
-30 4 -55 9 -55 5 0 11 -11 13 -25 4 -17 1 -25 -8 -25 -8 0 -14 -4 -14 -10 0
-5 -11 -10 -25 -10 -17 0 -25 -6 -26 -17 0 -15 -2 -15 -9 2 -6 14 -9 4 -9 -36
-1 -55 -2 -57 -31 -62 -24 -5 -30 -12 -30 -32 0 -17 7 -26 23 -30 13 -4 24
-12 24 -18 5 -75 5 -239 0 -243 -6 -7 -34 -12 -64 -13 -18 -1 -22 -8 -25 -38
-3 -35 -5 -38 -38 -41 -19 -2 -39 -8 -45 -13 -7 -7 3 -9 30 -5 29 5 35 4 20
-3 -11 -5 -30 -10 -43 -10 -14 -1 -22 -6 -20 -13 3 -8 18 -12 41 -10 27 3 38
-1 46 -16 6 -11 7 -22 4 -26 -3 -3 -2 -6 3 -6 6 0 15 5 22 12 9 9 12 9 12 -1
0 -11 3 -11 15 -1 10 9 15 9 15 1 0 -6 7 -11 15 -11 13 0 15 -21 15 -125 0
-95 -3 -125 -12 -124 -7 1 -28 1 -45 0 -25 -1 -33 -5 -33 -20 0 -20 -26 -31
-77 -31 -31 0 -33 -2 -33 -38 0 -37 1 -38 30 -34 16 2 40 2 53 -1 20 -6 22
-12 22 -69 -1 -42 -5 -62 -13 -61 -6 2 -37 -4 -69 -11 -32 -8 -48 -15 -35 -15
37 -2 25 -19 -20 -29 -40 -9 -41 -10 -13 -12 25 -3 22 -4 -15 -10 -37 -6 -28
-7 46 -8 126 -3 184 -11 184 -29 0 -8 -4 -11 -10 -8 -5 3 -10 1 -10 -5 0 -7 8
-9 20 -5 16 5 20 2 20 -19 0 -33 -3 -42 -12 -38 -5 1 -8 -2 -8 -8 0 -5 7 -10
15 -10 13 0 15 -13 13 -77 l-3 -78 -74 -5 -75 -5 -2 -32 -2 -32 81 -3 82 -3
-2 -35 c-2 -35 -2 -35 8 -7 6 15 15 27 21 27 7 0 6 -5 -1 -14 -7 -8 -9 -25 -6
-39 7 -28 -9 -44 -28 -29 -7 6 -28 9 -47 8 -33 -1 -35 -4 -38 -38 l-3 -37 58
-3 c54 -3 58 -5 60 -28 l2 -25 -8 25 c-8 23 -9 21 -10 -13 -1 -23 3 -36 9 -32
6 3 10 2 10 -2 0 -8 15 -12 58 -15 21 -2 9 -48 -14 -48 -7 0 -18 -8 -23 -17
-8 -15 -11 -15 -12 -3 -1 8 -5 -1 -9 -20 l-7 -35 -2 39 c-1 47 -12 41 -16 -8
-2 -35 -1 -36 34 -36 20 0 46 -3 59 -6 20 -6 22 -10 16 -63 -3 -31 -8 -58 -10
-60 -2 -2 -26 -4 -54 -5 -50 -1 -51 -1 -48 -31 3 -29 4 -30 66 -33 l62 -3 0
-34 0 -35 -60 0 -60 0 0 -40 0 -40 74 0 73 0 7 -39 c3 -22 12 -42 18 -44 7 -3
0 -6 -17 -7 l-30 -2 30 -13 c19 -9 24 -14 12 -15 -14 0 -16 -5 -11 -27 8 -34
15 -42 21 -25 3 6 8 12 12 12 8 0 5 -86 -4 -100 -2 -4 -23 -5 -45 -3 l-40 4 0
-44 c0 -43 1 -45 38 -51 20 -3 61 -6 90 -6 53 0 55 -1 55 -45 0 -30 -3 -36
-14 -29 -8 4 -7 9 2 15 9 5 -4 8 -33 6 -27 -1 -48 -5 -48 -9 0 -5 -18 -8 -39
-8 -43 0 -51 -10 -51 -64 l0 -31 75 3 c108 6 125 0 125 -43 0 -30 -3 -35 -24
-35 -15 0 -26 -7 -29 -17 -4 -16 -5 -16 -6 1 -1 17 -8 18 -93 12 -51 -3 -109
-7 -128 -7 -30 -1 -31 -2 -7 -6 15 -2 27 -9 27 -14 0 -6 -4 -7 -10 -4 -6 3 -7
-1 -4 -9 4 -12 0 -16 -17 -17 -62 -3 44 -17 139 -18 60 -1 102 -5 102 -11 0
-5 -6 -10 -14 -10 -8 0 -20 -13 -28 -30 -11 -25 -19 -30 -48 -31 -19 -1 -41
-1 -47 0 -9 1 -13 -12 -13 -39 l0 -40 50 0 50 0 0 -40 c0 -40 0 -40 39 -40 43
0 73 -8 67 -19 -2 -3 -7 -65 -10 -138 l-6 -132 28 1 c16 1 35 -3 42 -7 7 -4
16 -2 21 6 7 11 9 10 10 -3 1 -10 3 -22 4 -28 1 -5 3 -41 4 -80 l1 -70 45 0
c44 0 50 -5 46 -38 -1 -7 5 -15 14 -19 28 -10 -4 -23 -57 -23 -27 0 -48 -4
-48 -10 0 -5 5 -10 10 -10 6 0 10 -7 10 -15 0 -8 6 -15 13 -16 27 -1 62 -10
69 -17 4 -4 8 -21 10 -37 2 -29 4 -30 40 -27 22 3 38 0 38 -6 0 -6 26 -12 57
-14 l57 -3 2 -37 1 -38 -43 0 c-45 0 -48 -3 -46 -47 1 -14 -5 -23 -13 -23 -20
0 -27 -17 -9 -24 8 -3 12 -2 9 4 -4 6 13 10 42 11 26 0 67 1 89 3 l42 2 6 -56
c7 -59 -1 -120 -15 -120 -5 0 -6 8 -3 18 5 16 5 16 -9 -1 -10 -12 -41 -22 -88
-30 l-74 -13 -3 -37 -3 -37 183 -2 c101 0 189 -1 196 -1 23 1 6 -22 -19 -26
-22 -3 -23 -4 -4 -12 18 -7 18 -8 -5 -9 -24 -2 -23 -3 5 -10 26 -7 24 -8 -18
-7 -46 0 -75 -11 -49 -20 6 -3 12 -15 12 -28 0 -22 4 -24 63 -27 68 -3 63 2
58 -70 -1 -16 -16 -18 -159 -18 l-158 0 2 -30 c2 -26 -2 -31 -35 -40 -20 -5
-60 -10 -89 -10 -50 0 -54 -2 -64 -31 -10 -30 -13 -31 -51 -26 -27 4 -36 2
-26 -4 9 -5 -30 -9 -108 -9 l-123 0 0 125 0 125 -45 0 c-43 0 -45 -1 -45 -30
l0 -30 -60 0 -60 0 0 -40 0 -40 -53 0 -54 0 -13 -41 c-13 -39 -15 -40 -49 -35
-20 3 -78 5 -129 6 -90 0 -92 1 -82 20 7 13 21 20 40 20 17 0 30 5 30 10 0 6
10 10 23 10 21 1 21 1 2 12 -27 16 -215 24 -215 9 0 -6 -16 -11 -35 -11 -34 0
-35 1 -35 40 0 22 -4 40 -10 40 -5 0 -9 -3 -8 -7 2 -12 -13 -43 -21 -43 -17 0
2 58 22 67 18 8 19 10 4 16 -9 3 -17 2 -17 -3 0 -6 -16 -10 -35 -10 -31 0 -35
-3 -35 -25 0 -22 -4 -25 -39 -25 -32 0 -40 4 -45 23 -11 43 -8 47 39 47 l45 0
0 40 0 40 -50 0 -50 0 3 38 c2 34 6 38 40 46 20 5 37 14 37 19 0 5 -7 6 -16 3
-8 -3 -12 -2 -9 3 3 5 1 12 -5 16 -6 4 -8 11 -5 16 4 5 -2 9 -12 10 -10 0 -2
6 17 11 34 11 34 11 10 17 -21 6 -25 13 -26 44 0 21 -6 43 -14 50 -10 9 -11 9
-6 0 7 -13 -26 -17 -114 -15 -49 1 -50 1 -50 13 0 7 10 9 25 7 28 -6 35 8 8
15 -17 4 -17 5 0 6 9 0 17 5 17 10 0 5 -8 12 -17 14 -17 4 -17 5 0 6 15 1 22
12 18 34 0 4 3 7 8 7 5 0 7 27 4 60 l-6 60 46 0 c47 0 47 0 53 39 5 33 11 40
36 45 17 3 43 6 59 6 16 0 29 6 30 13 0 6 2 22 5 35 4 21 1 22 -60 22 -36 0
-68 -4 -71 -10 -3 -5 -26 -10 -49 -10 -43 0 -44 0 -50 41 -4 22 -3 46 1 52 10
17 12 57 2 89 -4 16 -4 28 2 28 22 0 1 26 -26 31 l-30 6 33 2 c19 0 31 5 27
11 -9 14 -45 12 -77 -4 -32 -17 -38 -8 -38 54 0 37 0 37 -32 31 -26 -5 -34
-14 -42 -39 -8 -30 -11 -32 -57 -32 l-49 0 0 40 0 40 48 0 c48 0 48 0 50 35
l3 35 -55 0 c-35 0 -60 5 -70 15 -8 8 -24 15 -35 15 -32 0 -25 20 7 21 24 0
25 1 7 9 -13 6 7 9 63 9 l82 1 0 40 0 40 -50 0 -50 0 0 41 0 41 48 -3 47 -3 0
39 0 40 48 0 c50 0 51 2 41 54 l-6 31 -94 0 -94 0 0 34 c0 33 1 34 55 41 45 5
55 10 55 26 0 15 -7 19 -32 20 -28 0 -30 2 -13 9 14 6 -5 9 -57 9 -93 1 -108
6 -108 37 0 22 4 24 56 24 l55 0 -2 60 -2 60 -49 0 c-43 0 -50 3 -59 27 -14
38 -8 47 40 49 24 1 47 9 54 18 7 8 31 16 57 18 42 3 45 5 48 34 l3 32 -43
-10 c-60 -13 -98 -15 -97 -3 1 15 -32 24 -98 24 l-63 1 0 35 c0 35 0 35 45 35
41 0 45 2 45 24 0 21 6 25 50 31 36 5 51 12 55 26 4 11 16 19 28 19 12 0 29 5
37 10 12 8 12 10 -5 10 -17 0 -17 2 -5 10 11 7 11 10 2 10 -7 0 -10 5 -7 10 4
6 -35 10 -109 10 -96 0 -116 -3 -116 -15 0 -8 -8 -15 -17 -15 -15 0 -16 -2 -3
-10 11 -7 11 -10 2 -10 -7 0 -10 -4 -7 -10 8 -12 -5 -13 -24 -1 -9 6 -22 6
-32 1 -21 -12 -34 3 -38 43 -2 26 -1 27 51 27 53 0 54 0 56 32 3 41 6 43 55
44 35 0 42 4 47 25 5 19 13 25 40 27 58 4 80 12 80 27 0 8 6 16 13 16 24 2
-68 18 -109 18 -41 1 -42 2 -41 34 1 32 3 34 41 35 74 3 50 12 -35 13 -50 1
-74 4 -59 8 18 5 25 14 26 31 2 50 2 50 62 50 44 0 61 4 74 19 9 11 14 22 11
25 -3 3 2 8 11 12 36 14 0 24 -84 24 -85 0 -89 1 -85 21 6 30 15 37 15 11 0
-35 18 -26 22 11 3 31 5 32 53 37 48 5 50 6 53 38 l4 32 -51 0 -51 0 0 34 c0
30 4 35 29 41 27 6 29 9 24 46 -6 38 -5 39 26 39 30 0 31 1 31 46 l0 46 -42
-2 c-64 -3 -68 -2 -68 19 0 11 -8 22 -17 24 -16 4 -16 5 1 6 10 0 26 10 35 20
9 11 30 21 46 23 19 2 31 10 33 21 4 22 -28 108 -38 102 -4 -3 -11 3 -14 12
-6 14 3 26 26 35 3 2 9 17 12 33 6 27 5 28 -4 6 -7 -15 -15 -21 -26 -17 -9 3
-20 6 -25 6 -6 0 -9 19 -7 43 3 39 5 42 38 48 l35 6 -38 2 c-41 1 -53 16 -43
55 4 18 15 25 46 30 40 6 40 6 40 51 0 45 0 45 36 45 21 0 33 4 29 10 -4 6 1
25 10 42 10 21 12 34 5 36 -5 2 -8 8 -4 13 3 5 0 9 -6 9 -6 0 -8 5 -5 10 4 6
-11 10 -38 10 -52 0 -60 6 -45 34 7 11 11 25 10 30 -2 5 4 6 13 3 9 -4 15 -1
15 8 0 8 -3 14 -7 14 -21 -3 -106 2 -102 6 3 2 31 5 63 6 31 1 52 5 45 9 -8 6
-8 9 2 13 8 4 1 4 -16 2 -16 -3 -24 -2 -17 1 16 8 15 32 -3 51 -10 9 -27 13
-50 10 -35 -5 -35 -4 -35 34 0 27 7 46 25 65 14 15 25 34 25 42 0 8 8 21 18
28 16 13 16 13 -2 14 -32 0 -96 23 -90 31 3 5 0 9 -5 9 -6 0 -11 -5 -11 -10 0
-6 -11 -3 -25 6 -32 21 -25 32 20 29 19 -2 35 1 35 6 0 5 -5 9 -11 9 -8 0 -8
5 1 15 11 13 7 15 -29 15 -43 0 -48 5 -55 50 -2 14 -9 24 -15 22 -6 -1 -11 2
-11 8 0 5 -14 10 -31 10 l-30 0 5 48 c3 26 2 63 -2 82 -7 31 -12 35 -42 38
-25 3 -30 6 -19 13 10 6 7 9 -12 9 -27 0 -39 16 -39 51 0 16 -7 19 -41 19
l-40 0 3 38 c3 34 6 37 35 40 31 3 32 5 30 43 l-2 39 -46 0 c-25 0 -49 3 -53
7 -4 4 -17 8 -29 8 -12 0 -22 5 -22 10 -2 26 -18 56 -28 52 -14 -4 -63 -116
-118 -270 -44 -121 -45 -127 -25 -127 10 0 13 -8 11 -22 -7 -36 7 -128 19
-127 40 5 51 -2 51 -30 0 -24 -5 -31 -28 -35 l-28 -6 2 -90 c1 -50 5 -92 9
-95 4 -2 21 -6 39 -7 27 -2 31 -6 31 -30 0 -20 5 -28 17 -28 15 0 15 -1 1 -12
-10 -8 -17 -29 -18 -53 -3 -61 -2 -65 19 -65 26 0 36 -17 14 -23 -17 -4 -17
-5 0 -6 10 0 25 6 33 14 26 25 59 13 62 -23 l3 -32 -70 0 -71 0 0 -35 0 -35
86 0 c68 0 84 -3 77 -12 -5 -7 -9 -24 -9 -38 1 -22 6 -25 44 -28 39 -3 42 -5
42 -31 0 -25 3 -27 33 -24 31 4 31 3 -8 -12 -22 -8 -57 -15 -78 -15 -36 0 -38
-2 -35 -27 3 -25 7 -28 46 -31 23 -2 40 -7 37 -12 -5 -9 11 -15 60 -22 18 -3
20 -13 25 -106 l5 -102 -87 0 c-49 0 -88 -4 -88 -9 0 -6 17 -8 37 -5 21 2 32
2 26 -2 -7 -3 -13 -10 -13 -15 0 -6 5 -7 12 -3 7 4 8 3 4 -4 -9 -16 -39 -15
-55 1 -10 8 -12 8 -7 0 9 -17 -14 -28 -25 -12 -7 11 -11 12 -17 1 -6 -9 -26
-12 -58 -10 -45 3 -49 5 -52 31 l-3 27 65 0 66 0 0 40 0 40 53 0 52 0 -2 32
c-1 18 -2 36 -2 41 -1 4 -28 7 -60 7 -54 0 -60 -2 -63 -22 -2 -19 -10 -24 -42
-26 -21 -2 -43 1 -49 7 -6 6 -30 11 -54 11 -36 0 -43 3 -43 20 0 18 7 20 78
20 90 0 105 7 100 46 l-3 29 -92 3 -93 3 -1 62 c-1 34 0 67 1 72 12 57 12 78
-1 86 -8 5 -48 6 -90 3 l-77 -7 -3 39 c-6 55 0 84 17 91 21 8 32 -6 14 -17
-13 -8 -13 -11 -1 -22 10 -10 12 -10 7 0 -4 6 -3 12 2 12 5 0 12 9 15 20 4 16
0 20 -20 20 -15 0 -22 4 -17 11 4 7 -1 10 -12 7 -21 -4 -40 -85 -79 -343 -40
-266 -48 -386 -48 -705 0 -379 20 -608 83 -952 140 -761 454 -1489 905 -2098
196 -264 500 -598 710 -779 169 -146 220 -187 211 -171 -4 8 4 0 19 -18 16
-20 35 -32 51 -32 22 0 24 4 24 45 l0 45 45 0 c36 0 48 5 61 24 12 19 26 26
57 28 41 3 42 4 39 38 -4 30 -2 33 12 21 11 -9 16 -10 16 -2 0 6 17 11 39 11
39 0 40 1 43 38 3 35 5 37 38 39 129 10 140 13 140 41 -1 26 -1 26 -13 7 -7
-11 -22 -21 -35 -21 -18 -1 -20 1 -11 12 6 8 18 14 25 14 8 0 14 7 14 15 0 8
6 14 13 12 7 -1 13 12 15 35 l3 38 -50 0 -51 0 0 -37 0 -38 -47 0 c-47 0 -48
-1 -51 -33 -3 -31 -4 -32 -53 -32 -40 0 -49 3 -49 18 -1 9 -2 51 -3 92 l-2 75
98 3 c73 2 97 6 97 16 0 19 82 28 179 20 62 -5 81 -4 81 6 0 7 -7 10 -15 6
-18 -6 -18 -5 -6 28 8 18 19 25 43 28 31 3 33 6 36 45 l3 42 135 -6 c108 -4
134 -2 134 8 0 11 3 10 10 -1 7 -11 10 -4 10 28 l0 42 -49 0 -48 0 3 52 c2 29
3 57 4 61 0 5 6 5 13 0 17 -11 126 -13 132 -2 4 5 -1 6 -9 3 -9 -3 -16 -1 -16
4 0 6 10 13 23 15 19 4 18 4 -5 6 -16 0 -28 -4 -28 -11 0 -10 -3 -9 -9 1 -7
10 -33 13 -107 12 -55 -1 -103 -6 -108 -12 -6 -5 -28 -8 -50 -7 l-41 1 45 7
45 7 -46 1 c-45 2 -47 3 -53 37 -8 41 10 76 39 74 17 -1 17 -2 3 -6 -39 -10
-14 -20 52 -22 74 -2 94 7 102 45 3 18 12 19 138 17 119 -2 274 -19 198 -22
-24 -1 -26 -5 -24 -33 3 -40 -6 -48 -65 -48 -29 0 -46 -5 -47 -12 -1 -7 -3
-24 -4 -38 l-3 -25 355 -7 c195 -3 381 -9 413 -13 l57 -7 0 -39 0 -39 55 0 55
0 0 -40 0 -40 95 0 95 0 0 -45 0 -45 88 0 c48 0 92 -4 98 -8 5 -4 10 -23 10
-42 -1 -34 0 -35 44 -38 40 -3 47 -7 63 -38 9 -20 13 -33 7 -29 -5 3 -10 2
-10 -3 0 -12 25 -22 55 -22 13 0 27 -4 30 -10 3 -5 31 -10 61 -10 l54 0 0 -39
0 -38 61 -7 c34 -3 131 -6 215 -6 l154 0 0 -39 0 -39 168 -7 c92 -4 201 -8
242 -9 l75 -1 0 35 0 35 -143 7 c-79 4 -146 8 -148 10 -3 4 -11 40 -13 61 -1
4 -19 7 -40 7 -37 0 -40 2 -43 33 -3 29 -6 32 -43 37 -25 3 -41 11 -42 20 -1
8 -5 45 -8 83 l-7 67 -33 0 c-32 0 -33 2 -40 48 l-6 47 -40 -1 c-37 -1 -39 1
-39 31 0 18 -3 53 -6 79 -6 44 -8 46 -40 46 -33 0 -34 1 -34 39 0 37 -1 39
-39 45 -40 6 -51 19 -51 61 0 21 -5 24 -42 27 -38 3 -43 6 -46 30 -3 22 -10
29 -38 34 -31 6 -34 9 -34 40 0 22 -5 34 -14 34 -15 0 -26 21 -26 51 0 16 -7
19 -55 19 -50 0 -55 2 -56 23 0 20 -1 21 -8 3 -7 -19 -8 -19 -13 2 -4 15 -2
22 8 22 8 0 14 5 14 10 0 6 -35 10 -82 11 -82 1 -221 15 -183 18 15 1 17 3 6
10 -11 7 -11 9 0 14 10 4 9 6 -3 6 -10 1 -18 7 -19 14 0 6 -5 0 -11 -15 -7
-20 -17 -28 -34 -28 -20 0 -24 5 -25 30 -1 17 -2 43 -3 60 0 16 -9 37 -19 47
-15 15 -21 16 -50 5 -27 -10 -34 -10 -43 3 -8 10 -25 14 -58 12 -29 -2 -51 2
-58 10 -6 7 -18 13 -27 14 -9 1 -5 4 9 9 l25 8 -27 1 c-34 1 -37 18 -5 24 12
2 1 5 -26 6 -41 1 -49 4 -57 26 -5 14 -9 31 -7 37 2 12 0 13 -76 23 -38 5 -50
11 -62 34 -10 20 -25 31 -50 35 -20 4 -35 13 -35 21 0 8 -8 19 -17 24 -16 9
-16 12 -3 20 11 8 15 30 15 93 l0 83 -36 1 c-19 0 -41 4 -47 8 -9 5 -12 -4
-12 -33 l0 -39 -45 0 c-44 0 -45 0 -45 33 0 28 -4 33 -30 39 -19 3 -34 14 -39
28 -5 13 -12 22 -17 21 -5 -2 -9 2 -9 7 0 6 -7 15 -15 20 -10 6 -11 10 -3 10
7 0 16 18 19 40 6 39 8 40 45 40 l38 0 3 87 3 88 30 5 c26 5 30 10 32 40 0 19
2 40 2 46 1 7 17 15 36 18 30 6 35 11 35 36 0 24 5 30 33 36 17 4 35 9 40 10
4 1 12 2 17 3 14 1 13 68 -1 73 -6 2 -26 2 -45 0 -31 -4 -34 -7 -34 -38 l0
-34 -69 0 c-38 0 -71 -4 -73 -10 -1 -5 -18 -10 -35 -12 -18 -1 -33 -7 -33 -13
0 -5 -5 -3 -10 5 -7 11 -10 7 -10 -17 0 -29 -3 -33 -27 -33 -22 0 -25 -2 -13
-10 12 -8 12 -10 -5 -10 -18 -1 -18 -2 3 -10 29 -12 29 -23 0 -15 -20 5 -21 4
-5 -5 25 -16 21 -40 -7 -40 -13 0 -26 5 -28 11 -2 6 -12 3 -24 -8 -12 -10 -19
-24 -17 -30 3 -9 -5 -13 -24 -13 -38 0 -56 13 -58 41 -1 20 -8 24 -41 26 -77
4 -94 7 -95 18 -2 32 -11 60 -20 63 -6 3 -6 9 1 17 8 10 8 24 1 52 -13 46 -14
66 -3 59 5 -3 22 -2 38 3 23 6 30 14 34 42 3 21 11 34 20 35 8 1 27 2 42 2 22
2 27 7 30 35 3 30 6 32 45 35 24 2 55 9 70 17 14 8 31 11 36 8 5 -3 13 1 18 8
6 10 9 11 9 2 0 -9 20 -13 65 -13 l65 0 0 34 c0 19 4 38 10 41 5 3 10 15 10
26 0 24 6 26 103 34 l77 7 0 34 c0 19 -4 34 -10 34 -5 0 -10 3 -10 8 0 4 29 9
64 10 50 3 65 0 69 -12 5 -13 12 -14 32 -6 54 20 65 14 65 -35 l0 -45 49 0
c28 0 52 -4 55 -8 3 -4 26 -6 53 -3 l47 6 4 43 3 42 -60 0 c-48 0 -61 3 -61
15 0 11 -11 15 -39 15 -36 0 -41 3 -52 35 -10 27 -19 35 -43 37 -17 2 -32 9
-32 16 -1 6 -2 21 -3 31 0 11 -9 22 -18 24 -17 4 -17 5 0 6 24 1 22 17 -3 17
-11 0 -20 -7 -20 -15 0 -10 -5 -8 -18 7 -10 11 -31 22 -47 24 -27 3 -30 7 -33
40 l-3 37 53 3 c50 3 53 5 50 28 -4 35 -20 42 -93 36 -77 -5 -114 8 -50 19
l41 7 -2 49 c-2 36 -6 48 -15 45 -11 -5 -19 26 -14 57 0 4 -13 7 -29 7 -27 0
-30 3 -30 30 0 24 5 31 28 36 59 13 63 16 60 37 -2 17 -13 24 -45 31 -39 8
-43 12 -43 37 0 29 -1 29 -57 29 l-58 0 1 40 2 40 -50 0 c-35 0 -48 4 -45 13
2 6 12 11 21 10 11 0 15 4 12 12 -3 9 0 12 10 8 8 -3 13 -12 10 -19 -3 -8 -1
-14 5 -14 6 0 9 8 7 17 -3 18 -77 64 -90 56 -3 -2 -36 -4 -73 -4 -78 -1 -119
-11 -121 -27 -4 -32 -6 -35 -14 -17 -8 18 -9 18 -9 -5 -1 -17 -4 -21 -9 -12
-5 8 -16 10 -28 5 -16 -6 -17 -4 -6 9 11 13 8 15 -25 14 -23 -1 -37 -7 -36
-14 2 -7 -4 -9 -14 -5 -11 4 -13 8 -5 11 7 2 10 8 6 13 -3 5 11 9 30 9 33 0
36 2 36 30 l0 30 95 0 95 0 0 35 0 35 115 0 115 0 0 30 0 30 -82 2 c-46 0
-105 1 -133 1 -27 0 -44 2 -37 4 6 3 12 15 12 27 0 25 -8 24 235 42 44 3 81 7
82 7 0 1 3 11 5 22 3 18 -2 20 -52 18 -30 -2 -193 -6 -362 -9 l-308 -6 0 30 0
29 293 8 c160 4 295 9 300 12 4 2 7 15 7 29 0 24 -1 24 -94 24 l-94 0 -7 30
c-6 28 -10 30 -51 30 -42 0 -44 1 -44 30 l0 30 -100 0 c-97 0 -100 1 -97 22 3
14 12 22 28 24 13 2 57 6 97 10 71 7 72 7 72 35 0 28 -2 29 -45 29 -32 0 -45
4 -45 14 0 8 6 17 13 19 6 3 3 6 -8 7 l-20 1 20 7 c28 10 237 3 230 -8 -3 -4
-14 -6 -25 -3 -18 5 -20 0 -20 -46 l0 -52 50 2 50 3 0 43 c0 36 -3 43 -20 43
-11 0 -20 5 -20 11 0 6 7 9 15 5 10 -4 15 1 15 15 0 33 19 59 43 59 12 0 28 4
36 9 11 7 9 10 -9 16 -18 6 -20 9 -9 16 11 7 11 11 1 17 -17 12 -4 42 19 42
18 0 34 47 27 80 -2 9 6 16 22 17 60 8 90 14 89 21 -3 20 3 32 16 32 8 0 15 5
15 10 0 6 -21 10 -47 10 -94 0 -95 1 -91 98 1 52 7 90 15 98 7 7 13 17 13 23
0 6 11 11 25 11 22 0 25 4 25 39 0 40 0 40 43 43 40 3 42 5 45 38 5 44 14 50
85 50 44 0 57 3 57 15 0 8 7 15 15 15 21 0 8 27 -18 35 -30 10 -14 13 117 20
l108 7 -7 67 c-4 36 -9 80 -10 96 -2 17 -5 37 -8 45 -3 8 -8 27 -11 42 -4 19
-11 26 -21 22 -8 -4 -15 -1 -15 4 0 6 8 13 18 15 9 3 2 5 -16 6 -24 1 -31 -3
-26 -11 5 -10 3 -10 -7 0 -10 9 -14 40 -15 105 l-2 92 -79 0 c-60 1 -84 5 -97
17 -12 12 -13 18 -3 22 9 5 9 7 0 12 -18 8 -16 22 5 27 9 3 -6 4 -34 2 -56 -4
-81 6 -69 25 5 9 4 11 -3 6 -13 -8 -15 1 -12 53 1 22 -2 31 -9 27 -6 -4 -11
-1 -11 6 -1 26 -24 -28 -25 -57 0 -22 -4 -29 -15 -26 -8 2 -23 3 -32 3 -20 -1
-23 3 -32 40 -5 20 -2 28 11 31 14 4 13 5 -4 6 -16 1 -21 6 -17 16 5 12 -4 15
-49 14 -45 -1 -56 -5 -60 -20 -5 -20 -47 -27 -47 -8 0 5 4 8 9 4 5 -3 12 -1
15 4 3 5 -3 11 -14 14 -25 7 -27 47 -2 48 14 0 14 2 -3 9 -18 8 -18 9 5 9 14
1 32 5 39 10 10 6 0 8 -27 4 -28 -4 -42 -2 -42 6 0 7 -20 11 -54 11 l-54 0 -6
44 c-7 44 -8 45 -49 48 -42 3 -42 3 -45 46 -3 42 -4 43 -35 42 -52 -3 -57 -1
-57 23 0 34 -14 49 -50 53 -45 5 -50 11 -50 55 l0 39 -50 0 c-46 0 -50 2 -56
28 -3 15 -7 32 -9 38 -3 12 -51 24 -91 24 -13 0 -24 6 -24 13 0 6 -12 13 -28
13 -15 1 -21 -1 -14 -3 19 -7 14 -22 -7 -16 -15 4 -17 10 -11 37 5 22 3 36 -7
44 -8 8 -13 35 -13 72 l0 60 -144 0 c-129 0 -144 -2 -148 -17z m29 -125 c-3
-8 -6 -5 -6 6 -1 11 2 17 5 13 3 -3 4 -12 1 -19z m-13 -260 c-4 -6 0 -14 7
-20 11 -7 9 -8 -6 -6 -11 2 -20 8 -20 13 0 6 -4 15 -8 22 -5 7 -1 9 13 6 11
-3 17 -10 14 -15z m-44 -8 c0 -5 -4 -10 -9 -10 -6 0 -13 5 -16 10 -3 6 1 10 9
10 9 0 16 -4 16 -10z m1427 -532 c-3 -7 -5 -2 -5 12 0 14 2 19 5 13 2 -7 2
-19 0 -25z m-37 2 c0 -5 -2 -10 -4 -10 -3 0 -8 5 -11 10 -3 6 -1 10 4 10 6 0
11 -4 11 -10z m-1293 -77 c-2 -16 -4 -5 -4 22 0 28 2 40 4 28 2 -13 2 -35 0
-50z m-1564 -105 c-2 -5 -22 -8 -44 -8 -21 0 -39 3 -39 8 0 4 20 7 44 7 24 0
42 -3 39 -7z m3194 -223 c0 -18 -19 -15 -25 3 -2 7 3 12 11 12 7 0 14 -7 14
-15z m-3442 -255 c3 -5 -1 -10 -10 -10 -9 0 -13 5 -10 10 3 6 8 10 10 10 2 0
7 -4 10 -10z m-215 -461 c0 -5 5 -7 12 -3 7 5 8 3 4 -5 -5 -7 -14 -10 -22 -7
-8 3 -14 0 -14 -6 0 -6 -3 -9 -6 -5 -9 9 3 37 16 37 5 0 10 -5 10 -11z m3080
-59 c0 -5 -4 -10 -10 -10 -5 0 -10 5 -10 10 0 6 5 10 10 10 6 0 10 -4 10 -10z
m-2673 -6 c-3 -3 -12 -4 -19 -1 -8 3 -5 6 6 6 11 1 17 -2 13 -5z m2317 -106
c-3 -5 -10 -6 -15 -3 -5 4 -9 1 -9 -4 0 -6 -8 -11 -17 -11 -15 0 -15 1 1 13
21 15 48 18 40 5z m292 -39 c6 -10 -2 -11 -33 -3 -13 4 -23 10 -23 14 0 10 49
0 56 -11z m-319 5 c-3 -3 -12 -4 -19 -1 -8 3 -5 6 6 6 11 1 17 -2 13 -5z
m-2136 -193 c21 -5 24 -10 18 -31 -7 -24 -7 -24 -8 -2 -1 12 -5 22 -11 22 -9
0 -15 -28 -11 -58 1 -7 -2 -12 -6 -11 -22 4 -25 -2 -8 -15 14 -10 18 -25 16
-71 -1 -32 -4 -62 -7 -66 -3 -5 -22 -9 -44 -9 -42 0 -49 9 -51 68 -1 24 -3 29
-6 15 -5 -27 -28 -30 -42 -5 -10 16 -10 16 -11 0 0 -27 -30 -10 -30 17 0 20 4
22 44 20 l44 -3 7 69 7 69 37 -1 c20 -1 48 -4 62 -8z m55 -26 c-4 -24 -16 -30
-16 -7 0 12 4 22 9 22 5 0 8 -7 7 -15z m-6 -51 c0 -2 -9 -4 -20 -4 -11 0 -20
4 -20 9 0 5 9 7 20 4 11 -3 20 -7 20 -9z m-33 -51 c-3 -10 -5 -4 -5 12 0 17 2
24 5 18 2 -7 2 -21 0 -30z m36 7 c3 -11 1 -20 -4 -20 -5 0 -9 9 -9 20 0 11 2
20 4 20 2 0 6 -9 9 -20z m-113 -159 c0 -28 -3 -30 -47 -36 -27 -3 -65 -8 -86
-11 -38 -4 -38 -4 -35 27 3 32 3 32 68 36 36 3 67 7 69 9 14 14 31 0 31 -25z
m1488 -103 c-4 -25 -2 -29 14 -25 10 3 16 1 12 -4 -9 -14 -41 -10 -48 6 -3 8
-1 15 4 15 6 0 10 7 10 15 0 20 -16 19 -24 -1 -3 -8 -11 -12 -17 -9 -6 5 -4
12 8 20 10 7 19 18 19 24 3 24 5 25 15 8 6 -11 9 -32 7 -49z m42 12 c0 -5 -4
-10 -10 -10 -5 0 -10 5 -10 10 0 6 5 10 10 10 6 0 10 -4 10 -10z m875 -4 c37
-16 47 -36 18 -37 -15 0 -15 -2 2 -9 17 -7 15 -9 -12 -9 -48 -1 -63 8 -63 40
0 33 7 35 55 15z m-828 -2 c-3 -3 -12 -4 -19 -1 -8 3 -5 6 6 6 11 1 17 -2 13
-5z m-1467 -44 c0 -11 0 -23 1 -27 0 -4 -4 -9 -10 -11 -6 -2 -11 8 -11 21 0
19 -6 27 -22 30 -17 3 -14 5 10 6 26 1 32 -3 32 -19z m1473 13 c-12 -2 -24
-12 -26 -21 -3 -12 -5 -10 -6 6 -1 18 4 22 27 21 22 -1 23 -2 5 -6z m656 -37
c8 -10 8 -16 -1 -23 -39 -30 -78 -23 -78 13 0 21 5 24 34 24 18 0 39 -6 45
-14z m-2179 -16 c0 -5 -4 -10 -10 -10 -5 0 -8 -13 -6 -30 2 -17 -1 -30 -8 -31
-6 -1 -18 -2 -26 -3 -8 0 -20 6 -27 14 -11 13 -12 13 -13 -2 0 -15 -9 -18 -50
-18 -49 0 -50 1 -50 30 0 26 4 30 28 32 63 3 81 5 96 11 9 4 20 -1 25 -11 9
-15 10 -14 11 6 0 13 6 22 15 22 8 0 15 -4 15 -10z m2115 -109 c-4 -13 0 -23
12 -30 16 -9 16 -10 -4 -11 -19 0 -23 5 -23 30 0 17 5 30 11 30 6 0 8 -8 4
-19z m-2077 -108 c-16 -2 -40 -2 -55 0 -16 2 -3 4 27 4 30 0 43 -2 28 -4z m32
-23 c0 -5 -15 -10 -34 -10 -19 0 -38 5 -41 10 -4 6 10 10 34 10 23 0 41 -4 41
-10z m2455 -8 c12 -8 13 -22 2 -39 -14 -22 -27 -14 -27 17 0 30 6 36 25 22z
m215 -227 c0 -31 -3 -35 -25 -35 -22 0 -25 4 -25 35 0 31 3 35 25 35 22 0 25
-4 25 -35z m-1153 -102 c-3 -10 -5 -4 -5 12 0 17 2 24 5 18 2 -7 2 -21 0 -30z
m43 -43 c-20 -13 -33 -13 -25 0 3 6 14 10 23 10 15 0 15 -2 2 -10z m20 -24 c0
-3 -4 -8 -10 -11 -5 -3 -10 -1 -10 4 0 6 5 11 10 11 6 0 10 -2 10 -4z m-1353
-452 c-3 -3 -12 -4 -19 -1 -8 3 -5 6 6 6 11 1 17 -2 13 -5z m-87 -258 c0 -2
-18 -6 -39 -8 -22 -2 -37 0 -35 4 5 8 74 11 74 4z m-40 -26 c0 -5 -5 -10 -11
-10 -5 0 -7 5 -4 10 3 6 8 10 11 10 2 0 4 -4 4 -10z m210 -370 c11 -8 8 -9
-14 -6 -16 3 -31 8 -34 11 -10 9 33 5 48 -5z m109 -46 c8 -7 2 -67 -7 -76 -5
-5 -17 -11 -26 -12 -10 -1 -22 -9 -27 -17 -7 -11 -9 -11 -10 4 -7 68 -5 72 29
75 37 4 44 22 8 22 -14 0 -28 4 -31 10 -5 9 53 3 64 -6z m215 -203 c3 -4 -6
-6 -19 -3 -14 2 -25 6 -25 8 0 8 39 4 44 -5z m-394 -181 c-8 -5 -19 -10 -25
-10 -5 0 -3 5 5 10 8 5 20 10 25 10 6 0 3 -5 -5 -10z m187 -46 c-3 -3 -12 -4
-19 -1 -8 3 -5 6 6 6 11 1 17 -2 13 -5z m-50 -36 c2 6 12 12 21 12 14 0 14 -2
3 -9 -11 -7 -10 -10 5 -14 10 -2 0 -5 -23 -6 -35 -1 -41 2 -36 15 5 13 8 13
15 2 7 -10 11 -10 15 0z m-64 -56 c-13 -2 -23 -10 -23 -20 0 -12 3 -13 12 -4
16 16 28 15 28 -3 0 -10 -11 -15 -35 -15 -32 0 -35 3 -34 28 l1 27 8 -25 c7
-23 8 -23 9 -3 1 21 27 35 46 24 6 -3 0 -7 -12 -9z m55 -54 c-2 -8 10 -14 30
-16 28 -3 33 -7 30 -25 -2 -18 -10 -22 -40 -22 -21 0 -38 3 -38 8 0 4 0 21 0
37 0 17 5 30 10 30 6 0 9 -6 8 -12z m292 -400 c0 -19 -2 -20 -10 -8 -13 19
-13 30 0 30 6 0 10 -10 10 -22z m1197 -114 c-3 -3 -12 -4 -19 -1 -8 3 -5 6 6
6 11 1 17 -2 13 -5z m-1052 -14 c3 -5 1 -10 -4 -10 -6 0 -11 5 -11 10 0 6 2
10 4 10 3 0 8 -4 11 -10z m64 -50 c-1 -23 -3 -28 -6 -12 -2 12 -9 22 -15 22
-5 0 -8 -7 -4 -15 3 -8 1 -15 -4 -15 -6 0 -10 6 -11 13 0 6 -2 19 -4 28 -2 12
4 16 21 15 21 -1 24 -6 23 -36z m38 -7 c-3 -10 -5 -4 -5 12 0 17 2 24 5 18 2
-7 2 -21 0 -30z m971 -90 c-10 -2 -28 -2 -40 0 -13 2 -5 4 17 4 22 1 32 -1 23
-4z m126 -117 c24 9 19 -12 -6 -28 -28 -17 -58 -12 -58 10 0 14 2 14 9 3 5 -8
14 -10 21 -6 9 6 6 13 -11 28 l-24 19 27 -16 c15 -9 34 -13 42 -10z m-807
-389 c0 -17 -1 -26 -4 -19 -3 7 -20 12 -41 11 -33 -1 -35 -2 -12 -9 l25 -8
-27 -1 c-21 -1 -28 4 -28 17 0 27 20 42 55 42 27 0 30 -3 32 -33z m348 13 c3
-5 1 -10 -4 -10 -6 0 -11 5 -11 10 0 6 2 10 4 10 3 0 8 -4 11 -10z m-274 -82
c0 -10 2 -10 6 0 9 22 20 13 20 -18 0 -16 -4 -30 -9 -30 -4 0 -8 7 -8 15 0 9
-6 12 -15 9 -8 -4 -15 -13 -15 -21 0 -13 -3 -13 -15 -3 -16 13 -20 42 -8 53
11 12 43 8 44 -5z m-78 -101 c-5 -25 -9 -28 -42 -25 -25 2 -37 8 -39 21 -3 14
4 17 37 17 25 0 41 5 41 12 0 6 2 9 4 7 2 -2 2 -17 -1 -32z m-103 -22 c0 -29
4 -45 13 -45 8 0 7 -4 -3 -10 -10 -6 -11 -10 -2 -10 6 0 12 -4 12 -10 0 -5
-18 -10 -40 -10 -31 0 -40 4 -41 18 0 9 -2 36 -4 59 -3 39 -1 42 23 46 15 2
30 5 35 6 4 0 7 -19 7 -44z"/>
<path d="M768 5343 c6 -2 18 -2 25 0 6 3 1 5 -13 5 -14 0 -19 -2 -12 -5z"/>
<path d="M5066 7726 c2 -39 3 -74 3 -77 1 -11 38 -17 52 -9 10 7 10 12 0 23
-9 12 -9 17 0 23 8 4 9 3 5 -4 -4 -7 -2 -12 3 -12 6 0 11 7 11 15 0 8 -4 15
-8 15 -7 0 -13 27 -15 73 -1 20 -13 23 -20 5 -4 -9 -6 -7 -6 3 -1 9 -7 16 -14
16 -10 0 -13 -17 -11 -71z"/>
<path d="M4365 7760 c-4 -12 -5 -24 -2 -27 3 -2 8 5 12 17 4 12 5 24 2 27 -3
2 -8 -5 -12 -17z"/>
<path d="M4400 7769 c0 -5 5 -7 10 -4 6 3 10 8 10 11 0 2 -4 4 -10 4 -5 0 -10
-5 -10 -11z"/>
<path d="M4408 7643 c0 -10 -1 -24 -1 -30 1 -7 -3 -13 -7 -13 -5 0 -11 -12
-13 -27 l-4 -28 -2 28 c-2 44 -21 31 -22 -15 -1 -37 -2 -39 -9 -18 -5 15 -8
18 -9 8 -2 -26 10 -48 25 -48 8 0 14 -6 15 -12 0 -7 4 -4 9 7 5 11 9 14 9 8 1
-20 211 -18 211 1 0 18 -38 46 -63 46 -17 0 -18 7 -15 55 l3 55 -62 0 c-53 0
-63 -3 -65 -17z"/>
<path d="M6775 7650 c4 -6 11 -8 16 -5 14 9 11 15 -7 15 -8 0 -12 -5 -9 -10z"/>
<path d="M5140 7537 l0 -95 36 -4 c19 -2 36 -2 38 1 1 3 -1 47 -4 96 l-5 90
-32 3 -33 3 0 -94z"/>
<path d="M8515 7550 c18 -8 18 -9 2 -9 -10 -1 -20 -7 -23 -14 -3 -9 -16 -12
-36 -9 -21 3 -29 1 -24 -7 4 -6 16 -11 27 -11 10 0 19 -6 19 -13 0 -18 -61
-10 -76 9 -9 12 -15 11 -37 -7 -23 -17 -25 -23 -14 -40 15 -23 36 -25 52 -2 8
11 18 14 31 8 15 -6 16 -8 4 -12 -43 -13 -43 -13 -30 -28 6 -8 9 -19 5 -25 -3
-5 -1 -10 4 -10 6 0 11 7 11 15 0 8 7 15 15 15 8 0 15 7 15 15 0 10 10 15 30
15 23 0 30 5 30 19 0 10 7 22 16 25 8 3 12 12 9 18 -4 7 1 4 9 -6 15 -19 16
-17 15 25 0 24 -3 38 -6 32 -2 -7 -9 -13 -14 -13 -6 0 -7 5 -4 10 4 6 -6 10
-22 9 -25 0 -26 -1 -8 -9z"/>
<path d="M8305 7500 c-3 -5 -1 -10 4 -10 6 0 11 5 11 10 0 6 -2 10 -4 10 -3 0
-8 -4 -11 -10z"/>
<path d="M8300 7459 c0 -11 5 -17 10 -14 6 3 10 13 10 21 0 8 -4 14 -10 14 -5
0 -10 -9 -10 -21z"/>
<path d="M8288 7423 c21 -3 32 -9 29 -16 -3 -8 9 -11 40 -8 63 5 41 19 -37 24
-36 3 -50 2 -32 0z"/>
<path d="M8208 7413 c7 -3 16 -2 19 1 4 3 -2 6 -13 5 -11 0 -14 -3 -6 -6z"/>
<path d="M2145 7380 c3 -5 11 -10 16 -10 6 0 7 5 4 10 -3 6 -11 10 -16 10 -6
0 -7 -4 -4 -10z"/>
<path d="M8367 7383 c-13 -12 -7 -23 13 -23 11 0 20 7 20 15 0 15 -21 21 -33
8z"/>
<path d="M4281 7367 c1 -6 1 -21 0 -32 -1 -17 -3 -18 -11 -5 -7 11 -10 7 -10
-17 0 -20 5 -33 13 -33 7 0 8 -3 2 -8 -20 -14 -30 -58 -27 -119 l3 -63 84 0
c46 0 96 5 110 12 22 10 28 9 36 -3 7 -11 9 -9 9 9 0 17 -6 22 -25 22 -14 0
-25 5 -25 10 0 6 -9 10 -20 10 -17 0 -20 7 -20 40 0 22 3 41 8 41 4 1 21 4 37
7 17 3 72 6 124 6 51 0 89 2 82 4 -6 2 -11 10 -11 18 0 16 -65 20 -75 4 -9
-14 -78 -13 -93 2 -9 9 -12 9 -12 -3 0 -9 -7 -16 -15 -16 -8 0 -15 6 -15 14 0
7 -7 16 -15 19 -8 4 -12 10 -9 15 3 5 1 9 -4 9 -14 0 -22 36 -11 47 6 6 -7 8
-31 6 -23 -2 -39 0 -36 5 2 4 -7 9 -20 10 -15 1 -24 -3 -23 -11z"/>
<path d="M8298 7373 c6 -2 18 -2 25 0 6 3 1 5 -13 5 -14 0 -19 -2 -12 -5z"/>
<path d="M2100 7355 c0 -8 6 -15 13 -16 6 0 3 -4 -8 -9 -15 -7 -10 -9 23 -9
35 -1 42 2 40 17 -4 22 -17 32 -45 32 -14 0 -23 -6 -23 -15z"/>
<path d="M2195 7350 c3 -5 8 -10 11 -10 2 0 4 5 4 10 0 6 -5 10 -11 10 -5 0
-7 -4 -4 -10z"/>
<path d="M8298 7303 c7 -3 16 -2 19 1 4 3 -2 6 -13 5 -11 0 -14 -3 -6 -6z"/>
<path d="M3430 7150 c-9 -6 -10 -10 -3 -10 6 0 15 5 18 10 8 12 4 12 -15 0z"/>
<path d="M2141 7104 c0 -11 3 -14 6 -6 3 7 2 16 -1 19 -3 4 -6 -2 -5 -13z"/>
<path d="M7678 7093 c7 -3 16 -2 19 1 4 3 -2 6 -13 5 -11 0 -14 -3 -6 -6z"/>
<path d="M4208 6988 c-9 -53 -2 -58 78 -58 48 0 73 4 69 10 -3 6 -2 10 4 10 5
0 12 -6 14 -12 3 -7 6 -8 6 -2 1 6 24 9 64 6 51 -3 60 -2 50 9 -7 7 -13 20
-12 29 0 10 3 9 9 -5 8 -19 9 -19 9 1 1 29 -21 34 -165 34 -118 0 -122 -1
-126 -22z"/>
<path d="M7530 6952 c0 -18 6 -22 30 -22 28 0 30 2 20 20 -6 11 -13 20 -16 20
-3 0 -2 -4 1 -10 9 -14 -8 -13 -23 2 -9 9 -12 7 -12 -10z"/>
<path d="M2220 6950 c0 -5 5 -10 11 -10 5 0 7 5 4 10 -3 6 -8 10 -11 10 -2 0
-4 -4 -4 -10z"/>
<path d="M2232 6840 c0 -14 2 -19 5 -12 2 6 2 18 0 25 -3 6 -5 1 -5 -13z"/>
<path d="M4195 6844 c-8 -9 -12 -21 -8 -27 11 -17 3 -91 -10 -99 -7 -4 -8 -8
-2 -8 5 0 3 -6 -3 -12 -10 -10 -15 -10 -22 2 -7 11 -10 7 -10 -18 0 -18 -4
-31 -9 -28 -5 4 -12 0 -14 -6 -4 -10 -6 -10 -6 0 -1 10 -6 9 -18 -4 -17 -16
-18 -16 -21 -1 -3 15 -5 15 -23 -2 -19 -17 -20 -26 -12 -102 9 -97 6 -95 120
-84 71 6 73 8 73 33 0 66 12 102 33 102 11 0 17 -3 14 -7 -4 -3 2 -12 13 -20
14 -10 25 -11 37 -4 14 8 15 10 3 11 -13 0 -13 1 0 10 12 8 12 10 1 10 -28 0
20 39 53 42 29 3 31 6 34 46 3 41 4 42 37 42 33 0 34 1 37 43 l3 42 60 0 c55
0 60 2 63 23 3 22 2 22 -130 23 -73 1 -165 3 -205 5 -55 2 -76 0 -88 -12z"/>
<path d="M2213 6803 c9 -2 25 -2 35 0 9 3 1 5 -18 5 -19 0 -27 -2 -17 -5z"/>
<path d="M229 6622 c-13 -46 -10 -56 15 -46 17 7 22 50 7 73 -7 11 -12 3 -22
-27z"/>
<path d="M8720 6569 c0 -5 19 -9 42 -9 49 0 47 5 -4 13 -21 3 -38 2 -38 -4z"/>
<path d="M6998 6543 c7 -3 16 -2 19 1 4 3 -2 6 -13 5 -11 0 -14 -3 -6 -6z"/>
<path d="M8770 6518 c0 -36 12 -31 16 7 1 14 -2 25 -7 25 -5 0 -9 -14 -9 -32z"/>
<path d="M6639 6538 c-6 -21 -5 -38 2 -38 5 0 9 9 9 20 0 16 -7 28 -11 18z"/>
<path d="M6661 6494 c0 -11 3 -14 6 -6 3 7 2 16 -1 19 -3 4 -6 -2 -5 -13z"/>
<path d="M2000 6470 c0 -28 3 -30 34 -30 50 0 69 9 55 26 -8 10 -8 14 0 14 6
0 11 4 11 8 0 5 -22 9 -50 11 -50 2 -50 2 -50 -29z"/>
<path d="M6053 6463 c0 -7 3 -11 5 -8 3 3 11 -3 18 -13 12 -15 13 -14 14 10 0
20 -5 26 -18 25 -10 0 -19 -7 -19 -14z"/>
<path d="M5851 6384 c0 -11 3 -14 6 -6 3 7 2 16 -1 19 -3 4 -6 -2 -5 -13z"/>
<path d="M5862 6335 c0 -16 2 -22 5 -12 2 9 2 23 0 30 -3 6 -5 -1 -5 -18z"/>
<path d="M5849 6264 c-10 -13 -10 -17 1 -24 7 -4 19 -6 27 -3 7 3 13 -2 13
-11 0 -31 16 -16 17 17 2 26 0 28 -7 12 -9 -19 -9 -19 -16 3 -8 26 -17 28 -35
6z m18 -16 c-3 -8 -6 -5 -6 6 -1 11 2 17 5 13 3 -3 4 -12 1 -19z"/>
<path d="M5805 6180 c-7 -12 -12 -57 -14 -135 -1 -27 -4 -30 -37 -33 -49 -3
-54 -8 -54 -50 0 -27 -6 -41 -21 -50 -16 -10 -18 -17 -10 -25 14 -14 14 -37 1
-37 -5 0 -10 9 -10 20 0 22 -15 27 -22 8 -2 -7 -1 -29 2 -48 7 -35 7 -35 18
-10 10 23 11 22 11 -17 1 -28 -3 -43 -11 -44 -7 0 -4 -4 7 -8 18 -7 35 -7 103
-3 21 2 22 6 22 97 0 88 1 95 20 95 19 0 20 7 20 113 0 110 -9 153 -25 127z
m-118 -402 c-2 -13 -4 -3 -4 22 0 25 2 35 4 23 2 -13 2 -33 0 -45z"/>
<path d="M203 6125 c0 -8 4 -15 9 -15 4 0 8 4 8 9 0 6 -4 12 -8 15 -5 3 -9 -1
-9 -9z"/>
<path d="M5753 6075 c0 -7 6 -11 14 -8 7 3 13 6 13 8 0 2 -6 5 -13 8 -8 3 -14
-1 -14 -8z"/>
<path d="M5127 6044 c5 -14 3 -14 -15 -3 -16 10 -31 10 -79 -2 -32 -8 -68 -13
-80 -11 -15 2 -23 -2 -23 -13 0 -8 5 -15 10 -15 6 0 10 -10 10 -22 1 -22 1
-22 15 -5 12 17 14 15 20 -25 3 -23 7 -70 8 -103 2 -57 3 -60 27 -60 22 0 25
4 22 33 -2 21 1 32 10 32 10 0 9 3 -2 10 -13 8 -13 10 2 10 13 0 16 8 13 39
-4 39 14 69 33 57 14 -8 33 18 42 59 6 27 5 35 -6 35 -8 0 -11 -6 -7 -16z"/>
<path d="M2038 6016 c-33 -8 -38 -14 -38 -38 0 -27 2 -28 48 -28 l48 0 2 38
c3 42 0 44 -60 28z"/>
<path d="M5638 5988 c5 -18 7 -19 10 -6 2 9 11 19 20 21 10 3 6 5 -10 6 -22 1
-25 -2 -20 -21z"/>
<path d="M5682 5950 c0 -14 2 -19 5 -12 2 6 2 18 0 25 -3 6 -5 1 -5 -13z"/>
<path d="M5898 5923 c7 -3 16 -2 19 1 4 3 -2 6 -13 5 -11 0 -14 -3 -6 -6z"/>
<path d="M5635 5910 c4 -6 11 -8 16 -5 14 9 11 15 -7 15 -8 0 -12 -5 -9 -10z"/>
<path d="M4433 5880 c-16 -6 -23 -18 -23 -35 0 -23 4 -25 45 -25 41 0 45 2 45
25 0 14 0 28 0 32 1 11 -43 13 -67 3z"/>
<path d="M1056 5825 c4 -8 7 -15 9 -15 1 0 8 7 15 15 10 13 9 15 -8 15 -15 0
-20 -5 -16 -15z"/>
<path d="M10156 5825 c-3 -10 -19 -15 -48 -15 l-43 0 -3 -57 c-1 -31 -4 -59
-6 -60 -2 -2 -17 -6 -32 -7 -16 -2 -32 -4 -36 -5 -5 0 -8 -18 -8 -38 0 -20 3
-33 6 -30 10 10 42 -11 47 -30 2 -10 3 -8 2 5 -1 13 2 21 9 19 6 -2 14 -32 17
-68 3 -35 6 -49 7 -31 2 30 4 32 42 32 l40 0 0 -80 c0 -87 3 -83 -62 -83 -14
0 -18 -8 -18 -38 l0 -39 45 0 45 0 0 -51 0 -50 38 3 37 3 -3 105 c-7 228 -40
530 -57 530 -7 0 -15 -7 -19 -15z"/>
<path d="M4500 5765 l0 -35 50 0 50 0 0 -40 c0 -37 2 -40 29 -40 16 0 43 -3
60 -6 27 -6 31 -10 31 -40 l0 -34 50 0 50 0 0 -45 0 -45 38 6 38 6 -4 -106 -4
-106 43 0 44 0 1 110 c1 90 -2 110 -14 110 -10 0 -13 7 -9 21 4 13 0 22 -11
26 -9 3 -23 11 -31 17 -8 6 -28 11 -45 11 -24 0 -31 5 -32 20 -3 54 -3 55 -39
55 -33 0 -35 2 -35 35 l0 35 -55 0 -55 0 0 40 0 40 -75 0 -75 0 0 -35z"/>
<path d="M970 5709 c0 -5 5 -7 10 -4 6 3 10 8 10 11 0 2 -4 4 -10 4 -5 0 -10
-5 -10 -11z"/>
<path d="M3435 5590 c3 -5 10 -10 16 -10 5 0 9 5 9 10 0 6 -7 10 -16 10 -8 0
-12 -4 -9 -10z"/>
<path d="M4663 5553 c9 -2 25 -2 35 0 9 3 1 5 -18 5 -19 0 -27 -2 -17 -5z"/>
<path d="M3309 5498 c0 -2 -2 -15 -4 -30 l-4 -28 69 0 c84 0 100 6 100 36 0
23 -2 24 -80 24 -44 0 -80 -1 -81 -2z"/>
<path d="M4748 5483 c-34 -5 -57 -36 -50 -68 4 -23 9 -25 57 -25 50 0 53 1 56
28 2 15 3 37 1 50 -3 22 -8 23 -64 15z"/>
<path d="M5740 5329 c0 -5 5 -7 10 -4 6 3 10 8 10 11 0 2 -4 4 -10 4 -5 0 -10
-5 -10 -11z"/>
<path d="M6142 5310 c0 -14 2 -19 5 -12 2 6 2 18 0 25 -3 6 -5 1 -5 -13z"/>
<path d="M6086 5295 c4 -8 1 -15 -5 -15 -8 0 -8 -6 1 -20 15 -24 21 -19 23 20
1 19 -3 30 -11 30 -8 0 -11 -6 -8 -15z"/>
<path d="M6191 5294 c0 -11 3 -14 6 -6 3 7 2 16 -1 19 -3 4 -6 -2 -5 -13z"/>
<path d="M3930 5145 l0 -35 50 0 50 0 0 -40 0 -40 45 0 c45 0 45 0 45 34 0 34
-1 35 -42 38 -39 3 -43 5 -46 33 -5 37 -16 45 -64 45 -37 0 -38 -1 -38 -35z"/>
<path d="M3529 5113 l7 -28 142 -3 c118 -2 142 0 142 12 0 8 3 21 6 30 5 14
-12 16 -149 16 l-155 0 7 -27z"/>
<path d="M10156 5032 c-3 -5 -6 -32 -7 -60 l-3 -52 -38 0 c-38 0 -38 0 -38
-40 l0 -40 40 0 40 0 0 -95 0 -96 -85 3 c-47 1 -85 5 -85 10 0 4 17 8 39 8 31
0 40 4 44 22 3 12 4 25 1 30 -3 4 -88 8 -190 8 -175 0 -184 1 -184 19 0 47 -8
51 -95 51 l-84 0 -3 -32 c-3 -31 -4 -31 -53 -32 l-50 -1 -3 -43 c-3 -40 -5
-43 -30 -40 -26 3 -27 1 -30 -44 l-3 -48 -152 -2 c-257 -4 -333 -8 -304 -15 9
-2 17 -9 17 -15 0 -5 -7 -8 -15 -4 -8 3 -15 1 -15 -4 0 -6 7 -10 15 -10 8 0
15 -7 15 -15 0 -11 -11 -15 -41 -15 -24 0 -38 4 -34 10 3 6 1 10 -4 10 -6 0
-11 -21 -11 -50 0 -27 -1 -53 -2 -57 -2 -5 22 -10 52 -13 53 -5 55 -6 55 -35
l0 -30 -95 -3 c-52 -2 -98 -6 -103 -11 -4 -4 -10 -22 -12 -39 -5 -38 6 -42 99
-44 71 -1 82 -8 78 -49 -3 -22 2 -27 29 -33 17 -3 47 -6 66 -6 29 0 33 -3 29
-18 -10 -32 -14 -202 -4 -202 5 0 11 7 15 16 5 13 7 13 14 2 7 -10 9 -9 9 5 0
9 7 17 15 17 10 0 15 -11 15 -35 0 -31 3 -35 28 -36 29 -2 59 -5 80 -7 15 -2
16 -48 2 -57 -13 -8 -74 -14 -148 -14 -49 -1 -53 -3 -52 -23 1 -13 2 -38 1
-56 -1 -28 -4 -33 -23 -30 -17 2 -22 -2 -20 -13 1 -9 -4 -19 -12 -22 -11 -4
-13 4 -10 39 3 34 1 44 -10 44 -8 0 -18 -4 -21 -10 -3 -5 -21 -10 -40 -10 -32
0 -33 1 -29 33 7 54 -2 67 -39 56 -17 -5 -42 -9 -54 -9 -20 0 -23 5 -23 40 l0
40 -44 0 -45 0 -6 43 c-6 41 -8 42 -43 42 -46 1 -62 -14 -62 -55 l0 -31 -82 6
c-46 4 -89 8 -95 10 -7 3 -13 0 -13 -5 0 -6 20 -10 45 -10 45 0 45 0 45 -35
l0 -35 -55 0 -55 0 0 -45 0 -45 -45 0 -45 0 0 -40 c0 -42 3 -41 -65 -44 -15
-1 -21 -10 -25 -36 -5 -34 -7 -35 -52 -38 -47 -3 -48 -4 -48 -38 l0 -34 49 0
c56 0 61 -4 54 -42 -5 -27 -6 -27 -105 -30 -74 -2 -102 0 -105 10 -6 14 -61
16 -83 2 -8 -5 -11 -10 -6 -10 5 0 4 -6 -1 -12 -6 -7 -9 -21 -8 -30 2 -10 -3
-18 -11 -18 -13 0 -19 13 -15 34 1 5 -5 6 -13 3 -9 -4 -18 -2 -21 3 -4 6 -1
10 5 10 6 0 9 4 5 10 -3 5 -12 7 -20 3 -11 -4 -15 -23 -15 -74 0 -42 -4 -69
-11 -69 -6 0 -8 9 -4 20 5 15 2 20 -12 21 -16 0 -16 1 1 8 29 11 7 19 -36 14
-34 -5 -38 -8 -38 -34 0 -20 5 -29 16 -29 8 0 13 -4 10 -9 -3 -5 1 -14 9 -21
8 -7 15 -27 15 -45 0 -27 -4 -33 -26 -38 -22 -4 -28 0 -36 24 -12 34 -33 37
-50 9 -7 -11 -24 -20 -38 -21 -14 0 -19 -3 -12 -6 7 -3 12 -24 12 -54 l0 -49
-40 0 c-54 0 -51 -20 3 -21 l42 -1 -47 -16 c-38 -12 -48 -20 -48 -38 0 -43
-10 -54 -51 -54 -39 0 -39 0 -39 40 0 33 -4 40 -20 41 -39 3 -45 5 -42 17 4
20 -17 52 -31 47 -6 -2 -27 -6 -45 -9 -28 -4 -34 0 -48 27 -22 42 -21 42 -37
29 -7 -6 -30 -10 -50 -9 -20 2 -33 -1 -31 -5 9 -13 -16 -38 -37 -38 -15 0 -19
8 -19 40 0 51 -9 55 -108 44 l-77 -9 -3 -32 c-3 -29 -7 -33 -35 -34 -18 -1
-35 -1 -39 0 -5 0 -8 -3 -8 -9 0 -5 -7 -7 -15 -4 -19 8 -21 -41 -2 -53 6 -4
66 -8 132 -8 66 -1 148 -2 183 -3 l62 -2 0 -40 0 -40 40 0 c39 0 40 -1 40 -34
0 -27 5 -36 23 -41 45 -13 68 -28 55 -37 -10 -6 -9 -8 3 -8 18 0 29 -28 29
-77 0 -32 2 -33 39 -33 l39 0 7 -85 7 -85 38 0 38 0 7 -74 c8 -79 13 -86 73
-86 l22 0 0 -200 c0 -168 -3 -205 -16 -225 -10 -15 -12 -25 -5 -25 22 0 11
-30 -11 -31 -22 -1 -22 -1 2 -9 21 -7 19 -8 -17 -9 l-43 -1 0 -39 c0 -22 4
-41 9 -43 5 -1 11 -10 13 -18 2 -8 8 -18 13 -22 6 -4 0 -8 -12 -8 -18 0 -23
-6 -24 -27 -1 -16 -1 -31 0 -35 0 -5 -4 -8 -10 -8 -6 0 -9 -7 -5 -15 3 -8 1
-15 -5 -15 -6 0 -8 -4 -4 -9 3 -6 -11 -13 -32 -17 -21 -4 -43 -14 -50 -23 -7
-9 -13 -12 -13 -7 0 5 -7 2 -16 -5 -14 -11 -18 -11 -29 4 -11 15 -14 6 -20
-64 -4 -49 -11 -76 -15 -68 -5 7 -7 16 -4 20 2 4 0 10 -6 14 -6 4 -10 -6 -11
-22 0 -27 -1 -27 -9 -5 -5 12 -16 22 -25 22 -9 0 -18 7 -21 15 -5 12 -10 13
-20 4 -11 -9 -14 -8 -14 2 0 12 -2 12 -9 0 -7 -11 -10 -10 -14 5 -4 16 -5 17
-6 2 -1 -21 -17 -24 -24 -5 -3 6 -6 -13 -7 -43 -1 -30 -4 -48 -7 -39 -4 18
-83 29 -205 29 l-68 0 0 39 c0 35 -3 39 -31 45 -17 3 -35 3 -40 0 -5 -3 -9 -2
-8 3 5 27 -3 43 -21 43 -11 0 -20 1 -20 3 -6 84 -22 183 -30 185 -5 2 -8 8 -4
13 3 5 -6 9 -20 9 -24 0 -26 3 -26 45 0 38 3 45 20 45 14 0 20 7 20 21 0 19
-1 19 -16 5 -21 -21 -30 -20 -13 1 12 15 12 16 -4 10 -10 -4 -23 -7 -28 -7 -6
0 -8 -4 -4 -9 3 -5 -5 -11 -17 -13 -22 -3 -23 -8 -28 -108 -3 -58 -8 -104 -12
-102 -19 6 -28 1 -29 -15 0 -15 -2 -15 -9 2 -7 17 -9 15 -9 -11 -1 -17 -4 -33
-7 -37 -4 -3 -6 -57 -6 -119 1 -68 -2 -105 -7 -93 l-8 20 -5 -20 c-5 -16 -6
-17 -7 -2 -1 19 -31 24 -31 5 0 -9 -3 -8 -9 1 -8 12 -11 8 -16 -15 -12 -52
-14 -54 -50 -54 -32 0 -35 2 -35 30 0 18 -6 33 -15 36 -8 4 -15 12 -15 20 0 9
-12 14 -35 14 l-35 0 0 209 c0 221 0 222 -47 213 -23 -4 -23 -6 -23 -143 0
-142 -9 -189 -35 -189 -8 0 -14 -3 -13 -7 4 -15 -13 -139 -20 -149 -9 -14 -45
-27 -37 -14 3 6 -4 10 -17 10 -19 0 -20 -2 -8 -11 12 -8 10 -10 -10 -8 -46 3
-57 0 -41 -10 12 -8 12 -12 -2 -25 -14 -15 -16 -13 -20 16 -4 32 -4 31 -5 -6
-2 -29 -5 -37 -17 -32 -8 3 -15 0 -15 -6 0 -6 -11 -1 -25 12 -21 20 -25 21
-31 7 -3 -9 -3 -21 1 -27 4 -7 -24 -10 -84 -10 l-91 0 0 -39 c0 -35 3 -39 31
-45 17 -3 182 -6 365 -6 197 0 334 -4 334 -9 0 -5 15 -13 33 -16 17 -4 35 -13
39 -19 5 -8 8 -7 8 2 0 10 3 10 15 -2 8 -8 15 -25 15 -39 0 -23 2 -24 107 -30
58 -4 154 -7 212 -7 58 0 143 -3 189 -7 l82 -6 0 -38 0 -39 54 0 c59 0 106
-13 106 -30 0 -5 -5 -10 -11 -10 -5 0 -7 5 -4 10 3 6 1 10 -4 10 -6 0 -11 -7
-11 -15 0 -8 7 -15 15 -15 8 0 15 -7 15 -15 0 -11 13 -15 53 -15 30 0 95 -3
145 -6 l92 -7 0 -38 0 -39 43 -1 c23 0 65 -2 92 -4 l50 -3 -1 31 c-3 63 -3 64
-14 47 -8 -12 -12 -13 -19 -2 -12 19 -15 19 -35 3 -16 -13 -17 -11 -14 30 3
43 4 44 43 49 37 5 40 8 45 40 6 39 -1 37 123 39 71 1 73 2 84 31 10 26 17 30
50 32 35 1 34 2 -12 7 l-50 6 -3 46 -3 46 50 7 c45 6 50 9 56 36 4 16 4 34 0
40 -4 7 59 10 192 10 l199 0 -4 -40 c-3 -31 -1 -40 12 -40 8 0 60 39 115 87
72 63 96 90 87 95 -8 5 -17 27 -21 51 -4 23 -13 45 -19 49 -6 4 -40 8 -75 8
l-64 0 6 41 c3 22 7 42 9 44 2 2 31 5 66 7 54 3 62 6 62 23 0 46 12 65 39 65
25 0 27 3 23 31 -4 24 -2 30 8 24 10 -6 12 -4 7 8 -3 8 1 21 9 27 8 7 14 22
14 33 0 21 0 21 16 1 12 -14 14 -15 11 -3 -3 9 -1 21 5 27 8 8 5 14 -12 20
l-24 9 23 6 c20 5 22 10 17 54 -2 26 -5 51 -5 56 -1 4 -26 7 -56 7 l-55 0 -6
40 c-5 32 -12 42 -33 47 -14 4 -32 6 -39 4 -8 -1 -21 4 -30 11 -12 10 -14 10
-8 1 5 -10 -12 -13 -78 -13 l-85 0 -3 38 c-3 36 -4 37 -48 40 -25 1 -59 2 -77
2 -40 1 -63 23 -63 61 0 37 -20 38 -21 2 l-1 -28 -8 30 c-4 17 -8 25 -9 19 -1
-16 -34 -12 -48 6 -12 16 -14 16 -70 20 -21 1 -33 4 -26 6 9 4 7 14 -5 39 -15
30 -22 35 -53 35 -20 0 -57 3 -83 6 -45 7 -46 8 -44 39 1 25 6 32 17 28 14 -4
14 -4 1 6 -8 6 -45 11 -82 11 l-66 0 1 43 c1 41 2 42 42 47 29 4 39 9 36 20
-13 53 -13 55 -2 40 9 -12 11 -11 11 8 0 21 4 22 73 23 104 1 121 8 127 49 5
35 5 35 63 38 33 2 55 7 52 13 -4 5 3 9 14 9 16 0 21 7 22 28 l1 27 8 -25 c8
-24 8 -24 9 6 l1 31 182 6 c99 4 236 7 302 7 67 0 128 4 136 10 9 6 17 5 23
-3 4 -7 7 5 5 28 -3 40 -3 40 37 45 38 5 40 7 43 43 3 36 4 37 45 37 43 0 69
10 69 26 -1 5 5 8 13 6 7 -1 25 2 41 8 15 6 93 13 172 14 146 4 169 10 157 44
-13 35 1 37 258 40 138 2 255 7 259 10 3 4 33 75 66 157 208 522 321 1078 345
1688 l3 87 -37 0 c-21 0 -40 -4 -43 -8z m-616 -352 c0 -36 -2 -40 -25 -40 -23
0 -25 3 -23 40 3 34 6 40 26 40 19 0 22 -5 22 -40z m-465 -251 c0 -31 -3 -34
-33 -37 -26 -3 -34 1 -41 20 -15 40 4 58 54 53 16 -2 20 -9 20 -36z m103 3 c4
-36 -13 -48 -52 -38 -27 7 -37 25 -29 56 5 17 12 21 42 18 33 -3 36 -6 39 -36z
m259 -18 c-3 -3 -12 -4 -19 -1 -8 3 -5 6 6 6 11 1 17 -2 13 -5z m-157 -59 c0
-14 -6 -25 -12 -25 -9 0 -8 -4 2 -11 11 -8 7 -9 -19 -5 -18 3 -40 6 -47 6 -14
0 -20 41 -7 53 3 4 24 7 45 7 34 0 38 -3 38 -25z m-319 -65 c30 0 37 -17 23
-54 -9 -24 -94 -23 -94 2 0 37 13 63 27 58 8 -3 28 -6 44 -6z m78 -119 l-1
-26 -8 25 c-5 17 -8 19 -9 8 -1 -10 -8 -18 -16 -18 -18 0 -20 37 -2 43 22 8
37 -5 36 -32z m269 -3 c-6 -18 -28 -21 -28 -4 0 9 7 16 16 16 9 0 14 -5 12
-12z m-46 -83 c-4 -32 -7 -35 -38 -35 -32 0 -34 2 -34 35 0 34 1 35 38 35 38
0 38 0 34 -35z m133 26 c3 -5 1 -12 -5 -16 -5 -3 -10 1 -10 9 0 18 6 21 15 7z
m-356 -48 c-6 -7 -15 -10 -20 -7 -13 8 -3 21 15 21 12 0 13 -4 5 -14z m361 7
c0 -5 -10 -10 -22 -10 -19 0 -20 2 -8 10 19 13 30 13 30 0z m-64 -122 c5 -8
-4 -10 -32 -6 -37 5 -40 4 -39 -20 0 -20 -5 -26 -20 -26 -88 3 -85 2 -85 34
l0 30 84 0 c53 0 87 -4 92 -12z m-19 -24 c-3 -3 -12 -4 -19 -1 -8 3 -5 6 6 6
11 1 17 -2 13 -5z m-729 -71 c-3 -37 -4 -38 -44 -41 -38 -3 -41 -1 -39 20 1
13 3 31 4 41 1 13 10 17 42 17 l40 0 -3 -37z m-100 -85 l3 -38 -45 0 c-46 0
-52 6 -47 48 1 6 -8 12 -21 13 -23 1 -23 1 2 9 14 5 43 8 65 7 39 -2 40 -3 43
-39z m190 -2 c-3 -28 -6 -31 -40 -32 -34 -2 -36 0 -40 32 l-4 35 43 -3 c43 -2
44 -3 41 -32z m-296 -91 l3 -45 -36 0 c-36 0 -37 1 -41 41 -2 22 -2 42 1 45 2
2 19 4 37 4 31 0 32 -2 36 -45z m194 14 c1 -23 -3 -30 -22 -35 -35 -9 -54 2
-54 30 0 26 10 32 50 34 21 0 25 -4 26 -29z m182 24 c-10 -2 -26 -2 -35 0 -10
3 -2 5 17 5 19 0 27 -2 18 -5z m-48 -63 c-6 -37 -8 -40 -9 -13 -1 29 8 68 14
61 1 -2 -1 -23 -5 -48z m-247 -17 c-13 -2 -33 -2 -45 0 -13 2 -3 4 22 4 25 0
35 -2 23 -4z m343 -18 c4 -8 18 -15 33 -16 26 -1 26 -1 -4 -10 -19 -5 -31 -5
-33 1 -5 15 -22 12 -19 -2 1 -8 -11 -14 -34 -14 -33 -2 -35 0 -31 27 4 26 8
29 43 29 26 0 42 -5 45 -15z m-568 -27 c3 -37 -2 -35 -12 5 -3 15 -3 27 2 27
4 0 9 -14 10 -32z m83 9 c-10 -9 -11 -8 -5 6 3 10 9 15 12 12 3 -3 0 -11 -7
-18z m45 8 c14 -13 13 -15 -5 -15 -12 0 -21 6 -21 15 0 8 3 15 6 15 3 0 12 -7
20 -15z m119 10 c-23 -8 -85 -10 -85 -3 0 4 21 8 48 7 26 0 43 -2 37 -4z m-17
-22 c-10 -2 -26 -2 -35 0 -10 3 -2 5 17 5 19 0 27 -2 18 -5z m-118 -22 l-35
-5 45 -6 45 -7 -47 -1 c-37 -2 -48 2 -48 13 0 11 10 15 38 13 l37 -1 -35 -6z
m115 -1 c-28 -12 -57 -12 -50 0 3 6 21 10 38 9 27 0 29 -2 12 -9z m325 -28 c0
-27 -20 -42 -55 -42 -23 0 -32 5 -32 18 0 9 5 20 11 24 6 5 1 8 -12 8 -13 0
-21 -4 -18 -9 8 -12 -44 -29 -69 -22 -11 3 -21 14 -23 24 -3 15 7 17 98 17 90
0 100 -2 100 -18z m-603 -88 c-3 -3 -12 -4 -19 -1 -8 3 -5 6 6 6 11 1 17 -2
13 -5z m213 -14 c0 -17 -7 -20 -41 -20 -24 0 -38 4 -34 10 3 6 1 10 -5 10 -6
0 -8 5 -5 10 3 6 24 10 46 10 32 0 39 -3 39 -20z m-160 0 c0 -5 -15 -9 -32 -9
l-33 1 30 8 c17 4 31 8 33 9 1 0 2 -3 2 -9z m317 4 c-3 -3 -12 -4 -19 -1 -8 3
-5 6 6 6 11 1 17 -2 13 -5z m107 -15 c-3 -5 -10 -7 -15 -3 -5 3 -7 10 -3 15 3
5 10 7 15 3 5 -3 7 -10 3 -15z m-764 -116 c0 -26 -4 -33 -20 -33 -11 0 -20 6
-21 13 0 8 -2 7 -6 -2 -4 -10 -10 -5 -18 15 -16 38 -11 44 31 41 31 -2 34 -5
34 -34z m-760 -204 c0 -6 -4 -7 -10 -4 -5 3 -10 11 -10 16 0 6 5 7 10 4 6 -3
10 -11 10 -16z m113 -69 c5 -18 0 -20 -44 -20 -37 0 -49 4 -49 15 0 11 8 14
29 10 20 -3 31 0 35 11 7 19 22 11 29 -16z m-736 -1407 c-3 -10 -5 -4 -5 12 0
17 2 24 5 18 2 -7 2 -21 0 -30z m173 -72 c0 -6 -4 -12 -8 -15 -5 -3 -9 1 -9 9
0 8 4 15 9 15 4 0 8 -4 8 -9z m620 -11 c0 -5 -7 -10 -16 -10 -8 0 -12 5 -9 10
3 6 10 10 16 10 5 0 9 -4 9 -10z m-1095 -130 c-3 -5 -13 -10 -21 -10 -8 0 -14
5 -14 10 0 6 9 10 21 10 11 0 17 -4 14 -10z m-24 -86 c-4 -36 -10 -46 -22 -38
-5 3 -7 15 -3 27 6 22 6 22 -10 2 -15 -20 -15 -19 -16 7 0 17 6 28 18 31 29 8
37 1 33 -29z m-48 -57 c8 -6 7 -7 -3 -4 -10 2 -15 18 -16 48 -1 44 -1 44 3 4
3 -22 10 -44 16 -48z m-178 53 c3 -5 1 -10 -4 -10 -6 0 -11 5 -11 10 0 6 2 10
4 10 3 0 8 -4 11 -10z m462 -166 c-3 -3 -12 -4 -19 -1 -8 3 -5 6 6 6 11 1 17
-2 13 -5z"/>
<path d="M9521 4684 c0 -11 3 -14 6 -6 3 7 2 16 -1 19 -3 4 -6 -2 -5 -13z"/>
<path d="M9218 4073 c6 -2 18 -2 25 0 6 3 1 5 -13 5 -14 0 -19 -2 -12 -5z"/>
<path d="M3468 5015 c-3 -3 -3 -17 0 -30 4 -24 7 -25 88 -25 l84 0 0 30 0 30
-83 0 c-46 0 -86 -2 -89 -5z"/>
<path d="M4129 4996 c-3 -3 -23 -6 -46 -7 -34 -2 -42 -7 -46 -26 -2 -13 0 -23
4 -23 5 0 9 8 10 18 0 14 2 14 7 2 7 -16 52 -23 52 -8 0 5 5 6 10 3 6 -3 10
-2 10 3 0 5 9 12 20 15 25 6 26 27 2 27 -10 0 -21 -2 -23 -4z"/>
<path d="M3985 4960 c-3 -5 -1 -10 4 -10 6 0 11 5 11 10 0 6 -2 10 -4 10 -3 0
-8 -4 -11 -10z"/>
<path d="M3928 4953 c7 -3 16 -2 19 1 4 3 -2 6 -13 5 -11 0 -14 -3 -6 -6z"/>
<path d="M5635 4950 c-3 -5 -1 -10 4 -10 6 0 11 5 11 10 0 6 -2 10 -4 10 -3 0
-8 -4 -11 -10z"/>
<path d="M3390 4880 c0 -16 1 -30 3 -31 1 0 92 -3 202 -6 110 -3 205 -9 211
-14 7 -6 10 -18 7 -28 -6 -24 20 -31 114 -31 87 0 103 5 103 36 0 28 -2 28
-130 25 l-86 -3 4 41 4 41 -216 0 -216 0 0 -30z"/>
<path d="M4040 4878 c0 -24 4 -28 29 -28 32 0 54 20 24 21 -16 0 -16 1 2 9
l20 9 -20 1 -20 1 20 9 c16 7 12 9 -17 8 -35 -2 -38 -5 -38 -30z"/>
<path d="M4120 4735 l0 -106 38 3 37 3 0 100 0 100 -37 3 -38 3 0 -106z"/>
<path d="M3630 4731 c0 -11 -3 -26 -6 -35 -5 -14 4 -16 65 -16 39 0 71 3 71 6
0 10 -28 33 -33 28 -3 -3 -3 3 0 15 5 19 1 21 -46 21 -44 0 -51 -3 -51 -19z"/>
<path d="M4875 4721 c-3 -6 -12 -8 -20 -4 -12 4 -15 -4 -15 -36 0 -39 2 -41
30 -41 28 0 30 2 30 39 0 39 -13 61 -25 42z"/>
<path d="M9200 4719 c0 -9 -18 -10 -65 -5 -44 4 -65 3 -65 -4 0 -6 -4 -9 -9
-5 -5 3 -12 1 -16 -5 -3 -5 -18 -10 -33 -10 l-27 -1 25 -13 25 -14 -30 -5
c-17 -3 30 -4 104 -3 98 1 136 4 139 14 4 14 32 16 32 2 0 -5 14 -10 30 -10
17 0 30 5 30 10 0 6 -10 9 -22 7 -13 -2 -17 -2 -10 0 27 10 0 21 -41 17 -30
-3 -36 -2 -22 4 l20 9 -20 6 c-11 4 -5 5 13 3 18 -1 35 0 37 4 2 4 -18 7 -46
9 -32 1 -49 -2 -49 -10z m-17 -26 c-13 -2 -33 -2 -45 0 -13 2 -3 4 22 4 25 0
35 -2 23 -4z m-100 -20 c-7 -2 -21 -2 -30 0 -10 3 -4 5 12 5 17 0 24 -2 18 -5z
m67 3 c0 -2 -7 -6 -15 -10 -8 -3 -15 -1 -15 4 0 6 7 10 15 10 8 0 15 -2 15 -4z"/>
<path d="M8861 4698 c0 -16 4 -29 12 -29 6 -1 -6 -5 -28 -9 l-40 -8 40 2 c22
0 39 6 37 11 -2 6 7 13 20 17 21 7 20 7 -4 4 -21 -2 -28 2 -31 18 -3 16 -5 15
-6 -6z"/>
<path d="M8830 4700 c-13 -8 -12 -10 3 -10 9 0 17 5 17 10 0 12 -1 12 -20 0z"/>
<path d="M8998 4703 c7 -3 16 -2 19 1 4 3 -2 6 -13 5 -11 0 -14 -3 -6 -6z"/>
<path d="M4917 4623 c-4 -3 -7 -37 -7 -75 l0 -68 35 0 35 0 0 69 c0 63 -2 69
-22 75 -29 7 -33 7 -41 -1z"/>
<path d="M3846 4613 c-25 -7 -49 -30 -42 -42 3 -5 22 -9 41 -9 22 0 33 4 28
11 -4 6 0 8 10 4 9 -3 19 -2 22 3 4 6 -6 11 -22 11 -17 1 -21 3 -10 6 9 2 15
9 12 14 -6 9 -9 10 -39 2z"/>
<path d="M4215 4588 c1 -21 8 -34 19 -36 13 -3 16 -17 16 -83 l0 -79 45 0 45
0 0 -39 c0 -41 13 -51 68 -51 19 0 22 -5 22 -45 l0 -45 40 0 40 0 0 54 0 54
-35 4 c-19 2 -39 0 -43 -4 -5 -5 -10 24 -11 63 -1 40 -4 76 -7 81 -3 4 -21 8
-40 8 -32 0 -34 2 -34 34 0 36 -12 46 -56 46 -21 0 -24 4 -22 33 3 28 0 32
-23 35 -25 3 -27 0 -24 -30z"/>
<path d="M3660 4560 c0 -6 7 -10 15 -10 8 0 15 2 15 4 0 2 -7 6 -15 10 -8 3
-15 1 -15 -4z"/>
<path d="M1098 4543 c7 -3 16 -2 19 1 4 3 -2 6 -13 5 -11 0 -14 -3 -6 -6z"/>
<path d="M780 4526 c0 -8 -8 -17 -17 -19 -14 -4 -12 -5 5 -6 16 -1 22 5 22 19
0 11 -2 20 -5 20 -3 0 -5 -6 -5 -14z"/>
<path d="M3960 4520 c-13 -8 -12 -10 3 -10 9 0 17 5 17 10 0 12 -1 12 -20 0z"/>
<path d="M8810 4520 c0 -5 5 -10 10 -10 6 0 10 5 10 10 0 6 -4 10 -10 10 -5 0
-10 -4 -10 -10z"/>
<path d="M8840 4520 c0 -5 5 -10 10 -10 6 0 10 5 10 10 0 6 -4 10 -10 10 -5 0
-10 -4 -10 -10z"/>
<path d="M3938 4493 c12 -2 32 -2 45 0 12 2 2 4 -23 4 -25 0 -35 -2 -22 -4z"/>
<path d="M5280 4416 c0 -2 9 -6 20 -9 11 -3 18 -1 14 4 -5 9 -34 13 -34 5z"/>
<path d="M8615 4348 c4 -18 9 -36 12 -40 7 -13 53 -9 54 5 0 6 2 24 4 40 3 26
1 27 -36 27 -40 0 -41 0 -34 -32z"/>
<path d="M5095 4220 c-30 -8 -29 -10 13 -14 13 -2 22 3 22 11 0 7 -1 12 -2 12
-2 -1 -16 -5 -33 -9z"/>
<path d="M5932 4190 c0 -14 2 -19 5 -12 2 6 2 18 0 25 -3 6 -5 1 -5 -13z"/>
<path d="M5888 4183 c6 -2 18 -2 25 0 6 3 1 5 -13 5 -14 0 -19 -2 -12 -5z"/>
<path d="M8446 4052 l-48 -3 5 -40 c5 -35 2 -41 -16 -49 -14 -5 3 -6 43 -3 36
3 66 7 68 8 2 2 2 22 0 46 l-3 44 -49 -3z"/>
<path d="M8692 4002 c3 -31 8 -37 30 -40 24 -3 26 -6 21 -43 -6 -38 -5 -39 26
-39 17 0 31 5 31 10 0 6 -7 10 -15 10 -8 0 -15 7 -15 15 0 21 9 19 36 -11 23
-23 24 -24 24 -5 0 12 -7 21 -15 21 -8 0 -15 5 -15 10 0 6 -9 10 -20 10 -11 0
-20 5 -20 11 0 6 8 9 19 6 23 -6 51 10 51 28 0 8 7 15 16 15 8 0 13 4 10 9 -4
5 0 12 6 14 7 3 -6 6 -30 6 -26 1 -41 -3 -37 -9 4 -6 -14 -10 -47 -10 -33 0
-48 4 -40 9 11 7 10 9 -3 15 -14 5 -16 0 -13 -32z"/>
<path d="M8971 3934 c0 -11 3 -14 6 -6 3 7 2 16 -1 19 -3 4 -6 -2 -5 -13z"/>
<path d="M8303 3925 c0 -8 4 -12 8 -9 4 2 9 -1 11 -7 3 -9 16 -9 43 -3 l40 8
-42 4 c-24 2 -43 7 -43 13 0 5 -4 9 -8 9 -5 0 -9 -7 -9 -15z"/>
<path d="M8884 3864 c0 -54 1 -56 13 -28 17 40 16 84 -1 84 -10 0 -13 -15 -12
-56z"/>
<path d="M8820 3831 c0 -6 5 -13 10 -16 6 -3 10 1 10 9 0 9 -4 16 -10 16 -5 0
-10 -4 -10 -9z"/>
<path d="M8862 3820 c0 -14 2 -19 5 -12 2 6 2 18 0 25 -3 6 -5 1 -5 -13z"/>
<path d="M3756 3765 c-3 -8 -12 -15 -21 -15 -8 0 -15 -4 -15 -8 0 -4 26 -9 58
-10 55 -2 58 -1 60 23 2 23 -2 25 -37 25 -25 0 -41 -5 -45 -15z m19 -15 c3 -5
1 -10 -4 -10 -6 0 -11 5 -11 10 0 6 2 10 4 10 3 0 8 -4 11 -10z"/>
<path d="M8830 3748 c0 -13 7 -18 28 -17 21 1 22 2 7 6 -11 3 -23 10 -27 17
-5 7 -8 5 -8 -6z"/>
<path d="M8945 3720 c-3 -5 -1 -10 4 -10 6 0 11 5 11 10 0 6 -2 10 -4 10 -3 0
-8 -4 -11 -10z"/>
<path d="M4428 3713 c7 -3 16 -2 19 1 4 3 -2 6 -13 5 -11 0 -14 -3 -6 -6z"/>
<path d="M3038 3663 c7 -3 16 -2 19 1 4 3 -2 6 -13 5 -11 0 -14 -3 -6 -6z"/>
<path d="M7953 3633 c9 -2 25 -2 35 0 9 3 1 5 -18 5 -19 0 -27 -2 -17 -5z"/>
<path d="M7916 3604 c-11 -30 -6 -34 42 -33 30 1 38 4 22 7 l-25 5 25 8 25 7
-25 2 -25 2 25 8 c21 7 19 8 -16 9 -30 1 -44 -4 -48 -15z"/>
<path d="M5770 3500 c0 -5 7 -10 16 -10 8 0 12 5 9 10 -3 6 -10 10 -16 10 -5
0 -9 -4 -9 -10z"/>
<path d="M2410 3458 c0 -25 4 -28 33 -28 29 0 33 3 31 27 -1 24 -5 27 -32 28
-29 1 -32 -2 -32 -27z m47 -10 c-3 -8 -6 -5 -6 6 -1 11 2 17 5 13 3 -3 4 -12
1 -19z"/>
<path d="M1298 3403 c12 -2 32 -2 45 0 12 2 2 4 -23 4 -25 0 -35 -2 -22 -4z"/>
<path d="M1345 3179 c-8 -12 8 -16 35 -9 l25 6 -28 6 c-15 3 -30 2 -32 -3z"/>
<path d="M1520 3120 l0 -40 40 0 40 0 0 40 0 40 -40 0 -40 0 0 -40z"/>
<path d="M6450 3125 l0 -35 110 0 110 0 0 35 0 35 -110 0 -110 0 0 -35z"/>
<path d="M1356 3105 c-3 -9 0 -15 9 -15 8 0 15 7 15 15 0 8 -4 15 -9 15 -5 0
-11 -7 -15 -15z"/>
<path d="M5582 3090 c0 -14 2 -19 5 -12 2 6 2 18 0 25 -3 6 -5 1 -5 -13z"/>
<path d="M6212 3082 c-8 -5 -12 -22 -10 -38 l3 -29 118 -3 117 -3 0 36 c0 33
-2 35 -33 35 -19 0 -67 3 -108 6 -41 3 -80 1 -87 -4z"/>
<path d="M5810 2980 l0 -40 55 0 55 0 0 40 0 40 -55 0 -55 0 0 -40z"/>
<path d="M6107 3003 c-4 -3 -7 -21 -7 -40 0 -33 1 -33 45 -33 l45 0 0 40 c0
40 0 40 -38 40 -21 0 -42 -3 -45 -7z"/>
<path d="M1345 2770 c-3 -5 -1 -10 4 -10 6 0 11 5 11 10 0 6 -2 10 -4 10 -3 0
-8 -4 -11 -10z"/>
<path d="M3105 2399 c-4 -6 -5 -12 -2 -15 2 -3 7 2 10 11 7 17 1 20 -8 4z"/>
<path d="M7760 2370 c0 -5 11 -10 25 -10 14 0 25 5 25 10 0 6 -11 10 -25 10
-14 0 -25 -4 -25 -10z"/>
<path d="M1640 2329 c0 -6 7 -9 15 -5 8 3 15 1 15 -5 0 -6 5 -7 10 -4 6 4 8
11 5 16 -9 13 -45 11 -45 -2z"/>
<path d="M4758 2153 c7 -3 16 -2 19 1 4 3 -2 6 -13 5 -11 0 -14 -3 -6 -6z"/>
<path d="M7245 1941 c-38 -6 -85 -29 -85 -42 0 -8 14 -10 80 -14 72 -4 102 8
98 37 -3 25 -25 30 -93 19z"/>
<path d="M3138 1863 c12 -2 32 -2 45 0 12 2 2 4 -23 4 -25 0 -35 -2 -22 -4z"/>
<path d="M4368 1653 c6 -2 18 -2 25 0 6 3 1 5 -13 5 -14 0 -19 -2 -12 -5z"/>
<path d="M6685 1600 c3 -5 11 -10 16 -10 6 0 7 5 4 10 -3 6 -11 10 -16 10 -6
0 -7 -4 -4 -10z"/>
<path d="M2663 1560 c0 -25 2 -35 4 -22 2 12 2 32 0 45 -2 12 -4 2 -4 -23z"/>
<path d="M2681 1558 c1 -37 2 -39 9 -18 12 36 12 60 0 60 -5 0 -10 -19 -9 -42z"/>
<path d="M2678 1455 c-1 -30 0 -55 5 -55 4 0 7 6 8 13 0 6 2 31 5 55 3 23 1
42 -5 42 -5 0 -11 -25 -13 -55z"/>
<path d="M2622 1470 c0 -14 2 -19 5 -12 2 6 2 18 0 25 -3 6 -5 1 -5 -13z"/>
<path d="M2640 1474 c0 -6 7 -14 15 -18 10 -3 15 1 15 13 0 10 -7 18 -15 18
-8 0 -15 -6 -15 -13z"/>
<path d="M2621 1424 c0 -11 3 -14 6 -6 3 7 2 16 -1 19 -3 4 -6 -2 -5 -13z"/>
<path d="M2640 1424 c0 -8 5 -12 10 -9 6 3 10 10 10 16 0 5 -4 9 -10 9 -5 0
-10 -7 -10 -16z"/>
<path d="M2428 1323 c7 -3 16 -2 19 1 4 3 -2 6 -13 5 -11 0 -14 -3 -6 -6z"/>
<path d="M4690 1203 c2 -157 3 -152 -20 -148 -11 2 -20 -2 -20 -8 0 -7 -4 -6
-10 3 -8 13 -10 12 -10 -2 0 -10 7 -18 15 -18 16 0 21 -29 5 -31 -5 -1 -15 -2
-21 -3 -7 0 -15 -10 -20 -21 -6 -17 -8 -17 -8 -2 -1 19 -21 24 -21 4 0 -7 -11
-14 -25 -15 -14 -1 -25 3 -25 9 0 6 7 9 15 6 8 -4 17 -2 20 3 4 6 -5 10 -19
10 -17 0 -26 -6 -26 -16 0 -8 -4 -13 -8 -10 -5 3 -7 -8 -4 -23 5 -34 -7 -43
-54 -43 l-34 0 0 -48 0 -48 -92 -4 c-51 -2 -94 -4 -95 -3 -1 0 -5 46 -9 102
l-7 101 -48 4 c-34 2 -50 -1 -54 -10 -3 -9 -14 -12 -35 -7 -20 4 -30 3 -30 -5
0 -7 -7 -10 -15 -6 -8 3 -15 1 -15 -3 0 -5 6 -12 13 -14 10 -4 10 -6 0 -6 -7
-1 -13 -12 -13 -26 0 -23 -3 -25 -50 -25 l-50 0 0 43 0 42 -50 0 c-44 0 -50
-2 -48 -20 4 -53 1 -55 -62 -55 -45 0 -60 3 -60 14 0 14 -36 32 -52 28 -4 -1
-5 5 -2 13 4 8 2 15 -4 15 -14 0 -22 -25 -22 -68 0 -20 -4 -41 -8 -47 -4 -5
-32 -10 -62 -10 -53 0 -55 -1 -60 -30 l-5 -30 -93 1 -92 2 0 -27 c0 -27 -16
-51 -33 -51 -4 0 -5 5 -2 10 3 6 -1 10 -9 10 -9 0 -15 -6 -13 -12 1 -7 -5 -13
-13 -13 -19 -1 -60 -24 -42 -25 7 0 12 -15 12 -41 l0 -40 -42 3 -43 3 -8 125
c-5 68 -9 125 -10 126 -1 1 -26 4 -54 8 l-53 6 0 -44 c0 -26 -5 -46 -12 -48
-7 -2 -48 -3 -91 -2 -58 2 -77 0 -74 -9 5 -14 -137 -11 -165 4 -35 19 -47 11
-50 -33 -3 -37 -7 -44 -27 -46 -21 -3 -14 -10 45 -44 116 -69 461 -233 614
-293 979 -386 2026 -465 3050 -229 188 44 373 99 378 113 2 5 10 7 18 4 11 -4
14 9 13 73 -1 78 -2 79 -9 26 -4 -29 -11 -56 -15 -60 -5 -4 -5 4 -2 17 3 13 3
38 -1 55 l-6 31 -6 -29 c-3 -16 -12 -31 -20 -33 -13 -4 -13 -3 0 6 13 10 13
12 1 20 -10 6 -16 33 -19 75 l-4 66 -35 6 c-25 5 -31 9 -21 15 9 6 2 9 -22 10
-31 1 -32 2 -10 8 l25 7 -25 9 c-14 5 -31 8 -37 7 -21 -4 -15 8 10 19 20 9 20
9 -5 4 -16 -3 -28 -1 -28 4 0 6 -41 10 -99 9 -54 0 -113 3 -132 7 -31 7 -32 8
-14 21 18 14 18 14 -2 14 -12 0 -25 5 -28 11 -4 6 -14 8 -22 5 -11 -4 -13 -2
-9 9 4 11 -2 15 -24 15 -29 0 -30 1 -30 51 l0 51 -139 -5 c-118 -5 -140 -3
-145 10 -3 8 -6 53 -6 99 l0 85 -49 -2 c-28 -2 -48 -6 -45 -10 2 -4 0 -19 -6
-33 -8 -22 -16 -26 -50 -26 -37 0 -40 2 -40 28 0 61 -9 72 -56 72 l-44 0 0 40
0 40 -44 0 c-43 0 -44 0 -50 40 l-6 40 -56 0 c-51 0 -55 2 -49 20 7 23 -10 27
-19 4 -3 -8 1 -22 10 -31 19 -20 12 -28 -14 -14 -19 10 -32 6 -32 -11 0 -5 9
-7 19 -3 11 3 22 2 25 -3 3 -5 -18 -10 -46 -11 -29 -1 -55 -4 -59 -7 -4 -2
-10 2 -12 8 -4 10 -6 10 -6 1 -1 -7 -8 -10 -17 -6 -10 3 -17 -1 -20 -13 -5
-18 -13 -19 -76 -16 -52 3 -73 1 -79 -9 -5 -8 -9 -50 -10 -94 -1 -58 -3 -72
-9 -50 -7 29 -8 30 -9 4 -1 -33 -25 -39 -117 -31 l-64 5 0 -38 c0 -21 3 -35 8
-31 4 4 7 17 7 29 0 13 7 22 18 23 10 1 11 0 3 -3 -7 -2 -13 -15 -12 -29 1
-21 6 -24 38 -24 31 0 36 3 31 17 -4 11 -3 14 6 9 7 -4 11 -15 9 -23 -2 -11
-18 -16 -60 -17 l-58 -1 -2 240 -3 240 -38 3 -38 3 1 -98z m-124 -303 c-4 -28
-3 -40 6 -40 6 0 2 -9 -10 -20 -12 -11 -24 -20 -27 -20 -11 0 0 63 12 67 7 3
13 16 13 29 0 13 3 24 6 24 4 0 4 -18 0 -40z m31 -7 c-3 -10 -5 -4 -5 12 0 17
2 24 5 18 2 -7 2 -21 0 -30z m276 -10 c-7 -2 -19 -2 -25 0 -7 3 -2 5 12 5 14
0 19 -2 13 -5z m804 1 c-3 -3 -12 -4 -19 -1 -8 3 -5 6 6 6 11 1 17 -2 13 -5z
m24 -33 c6 10 9 4 9 -17 0 -33 -25 -49 -56 -37 -22 8 -17 43 6 43 11 0 20 6
21 13 0 8 2 8 6 -2 5 -11 7 -11 14 0z m131 -116 c3 -14 1 -25 -3 -25 -5 0 -9
11 -9 25 0 14 2 25 4 25 2 0 6 -11 8 -25z m44 0 c-1 -24 -19 -34 -30 -16 -9
14 4 41 19 41 7 0 12 -11 11 -25z m-2966 6 c0 -31 -14 -41 -56 -41 -40 0 -44
2 -44 25 0 23 3 25 50 25 28 0 50 -4 50 -9z m3528 -281 c10 23 11 22 11 -17 1
-39 -1 -43 -24 -43 -27 0 -31 13 -18 60 l7 25 7 -25 6 -25 11 25z"/>
<path d="M2240 1250 c0 -5 5 -10 10 -10 6 0 10 5 10 10 0 6 -4 10 -10 10 -5 0
-10 -4 -10 -10z"/>
<path d="M5240 1220 c-23 -7 -23 -8 10 -10 25 -2 28 -4 13 -7 -28 -5 -29 -14
-4 -30 16 -10 20 -9 25 10 13 49 7 53 -44 37z"/>
<path d="M2223 1209 c-23 -8 -32 -29 -13 -29 6 0 10 4 10 9 0 5 10 11 23 13
12 2 18 6 12 9 -5 4 -20 3 -32 -2z"/>
<path d="M4185 1173 c-11 -3 -23 -10 -27 -17 -6 -8 -8 -7 -8 2 0 19 -26 14
-27 -5 -1 -10 -4 -28 -8 -41 -8 -23 -6 -23 40 -18 26 2 49 6 51 8 6 7 11 78 5
77 -3 -1 -15 -4 -26 -6z m12 -19 c-3 -3 -12 -4 -19 -1 -8 3 -5 6 6 6 11 1 17
-2 13 -5z"/>
<path d="M2162 1145 c0 -16 2 -22 5 -12 2 9 2 23 0 30 -3 6 -5 -1 -5 -18z"/>
<path d="M2098 1103 c-7 -28 -1 -32 32 -22 23 6 23 7 3 8 -12 1 -23 9 -25 19
-3 14 -5 13 -10 -5z"/>
<path d="M3710 1037 c0 -27 4 -33 24 -35 17 -1 25 5 29 19 4 13 10 18 18 13 8
-4 10 -3 5 5 -4 6 -13 11 -19 10 -28 -3 -48 2 -42 11 3 6 1 10 -4 10 -6 0 -11
-15 -11 -33z"/>
<path d="M3748 1063 c7 -3 16 -2 19 1 4 3 -2 6 -13 5 -11 0 -14 -3 -6 -6z"/>
<path d="M4611 1044 c0 -11 3 -14 6 -6 3 7 2 16 -1 19 -3 4 -6 -2 -5 -13z"/>
<path d="M4011 1034 c-1 -6 -15 -9 -33 -8 l-33 3 35 -9 c39 -9 45 -8 37 12 -3
7 -6 8 -6 2z"/>
<path d="M3660 971 c0 -5 7 -12 16 -15 24 -9 27 -7 10 9 -17 17 -26 19 -26 6z"/>
<path d="M7200 900 c0 -5 5 -10 10 -10 6 0 10 5 10 10 0 6 -4 10 -10 10 -5 0
-10 -4 -10 -10z"/>
<path d="M7728 763 c7 -3 16 -2 19 1 4 3 -2 6 -13 5 -11 0 -14 -3 -6 -6z"/>
</g>
</svg>
